<svg width="24" height="24" viewBox="0 0 24 24" fill="none" xmlns="http://www.w3.org/2000/svg">
<path d="M11.7149 5.56123C11.7749 5.45998 11.8837 5.39998 11.9999 5.39998C12.1162 5.39998 12.2249 5.45998 12.2849 5.56123L19.7212 17.775C19.7737 17.8612 19.7999 17.9587 19.7999 18.0562C19.7999 18.3562 19.5562 18.6 19.2562 18.6H4.74365C4.44365 18.6 4.1999 18.3562 4.1999 18.0562C4.1999 17.955 4.22615 17.8575 4.27865 17.775L11.7149 5.56123ZM10.1774 4.62373L2.74115 16.8375C2.51615 17.205 2.3999 17.625 2.3999 18.0562C2.3999 19.35 3.4499 20.4 4.74365 20.4H19.2562C20.5499 20.4 21.5999 19.35 21.5999 18.0562C21.5999 17.625 21.4799 17.205 21.2587 16.8375L13.8224 4.62373C13.4362 3.98998 12.7462 3.59998 11.9999 3.59998C11.2537 3.59998 10.5637 3.98998 10.1774 4.62373ZM13.1999 16.2C13.1999 15.8817 13.0735 15.5765 12.8484 15.3514C12.6234 15.1264 12.3182 15 11.9999 15C11.6816 15 11.3764 15.1264 11.1514 15.3514C10.9263 15.5765 10.7999 15.8817 10.7999 16.2C10.7999 16.5182 10.9263 16.8235 11.1514 17.0485C11.3764 17.2735 11.6816 17.4 11.9999 17.4C12.3182 17.4 12.6234 17.2735 12.8484 17.0485C13.0735 16.8235 13.1999 16.5182 13.1999 16.2ZM12.8999 9.29998C12.8999 8.80123 12.4987 8.39998 11.9999 8.39998C11.5012 8.39998 11.0999 8.80123 11.0999 9.29998V12.9C11.0999 13.3987 11.5012 13.8 11.9999 13.8C12.4987 13.8 12.8999 13.3987 12.8999 12.9V9.29998Z" fill="#202020"/>
</svg>
