<svg width="20" height="20" viewBox="0 0 20 20" fill="none" xmlns="http://www.w3.org/2000/svg">
<path d="M9.7625 4.63438C9.8125 4.55 9.90312 4.5 10 4.5C10.0969 4.5 10.1875 4.55 10.2375 4.63438L16.4344 14.8125C16.4781 14.8844 16.5 14.9656 16.5 15.0469C16.5 15.2969 16.2969 15.5 16.0469 15.5H3.95312C3.70312 15.5 3.5 15.2969 3.5 15.0469C3.5 14.9625 3.52187 14.8813 3.56562 14.8125L9.7625 4.63438ZM8.48125 3.85312L2.28438 14.0312C2.09688 14.3375 2 14.6875 2 15.0469C2 16.125 2.875 17 3.95312 17H16.0469C17.125 17 18 16.125 18 15.0469C18 14.6875 17.9 14.3375 17.7156 14.0312L11.5188 3.85312C11.1969 3.325 10.6219 3 10 3C9.37813 3 8.80312 3.325 8.48125 3.85312ZM11 13.5C11 13.2348 10.8946 12.9804 10.7071 12.7929C10.5196 12.6054 10.2652 12.5 10 12.5C9.73478 12.5 9.48043 12.6054 9.29289 12.7929C9.10536 12.9804 9 13.2348 9 13.5C9 13.7652 9.10536 14.0196 9.29289 14.2071C9.48043 14.3946 9.73478 14.5 10 14.5C10.2652 14.5 10.5196 14.3946 10.7071 14.2071C10.8946 14.0196 11 13.7652 11 13.5ZM10.75 7.75C10.75 7.33437 10.4156 7 10 7C9.58437 7 9.25 7.33437 9.25 7.75V10.75C9.25 11.1656 9.58437 11.5 10 11.5C10.4156 11.5 10.75 11.1656 10.75 10.75V7.75Z" fill="white"/>
</svg>
