<svg width="20" height="20" viewBox="0 0 20 20" fill="none" xmlns="http://www.w3.org/2000/svg">
<path d="M16.7688 10.5433C16.9156 10.4027 17 10.2058 17 9.99961C17 9.79336 16.9156 9.59962 16.7688 9.45588L11.2688 4.20608C10.9688 3.91859 10.4938 3.93109 10.2094 4.23107C9.925 4.53106 9.93437 5.00605 10.2344 5.29041L14.3781 9.24963H3.75C3.33437 9.24963 3 9.584 3 9.99961C3 10.4152 3.33437 10.7496 3.75 10.7496H14.3781L10.2312 14.7057C9.93125 14.9932 9.92188 15.465 10.2063 15.765C10.4906 16.065 10.9656 16.0744 11.2656 15.79L16.7656 10.5402L16.7688 10.5433Z" fill="#808080"/>
</svg>
