<svg width="16" height="16" viewBox="0 0 16 16" fill="none" xmlns="http://www.w3.org/2000/svg">
<path d="M13.4149 8.43504C13.5324 8.32254 13.5999 8.16504 13.5999 8.00004C13.5999 7.83504 13.5324 7.68004 13.4149 7.56504L9.0149 3.36504C8.7749 3.13504 8.3949 3.14504 8.1674 3.38504C7.9399 3.62504 7.9474 4.00504 8.1874 4.23254L11.5024 7.40004H2.9999C2.6674 7.40004 2.3999 7.66754 2.3999 8.00004C2.3999 8.33254 2.6674 8.60004 2.9999 8.60004H11.5024L8.1849 11.765C7.9449 11.995 7.9374 12.3725 8.1649 12.6125C8.3924 12.8525 8.7724 12.86 9.0124 12.6325L13.4124 8.43254L13.4149 8.43504Z" fill="#006627"/>
</svg>
