<svg width="20" height="20" viewBox="0 0 20 20" fill="none" xmlns="http://www.w3.org/2000/svg">
<path d="M3.23125 10.5438C3.08438 10.4 3 10.2063 3 10C3 9.79375 3.08438 9.6 3.23125 9.45625L8.73125 4.20625C9.03125 3.91875 9.50625 3.93125 9.79063 4.23125C10.075 4.53125 10.0656 5.00625 9.76562 5.29063L5.62188 9.25H16.25C16.6656 9.25 17 9.58438 17 10C17 10.4156 16.6656 10.75 16.25 10.75H5.62188L9.76875 14.7063C10.0688 14.9938 10.0781 15.4656 9.79375 15.7656C9.50937 16.0656 9.03438 16.075 8.73438 15.7906L3.23438 10.5406L3.23125 10.5438Z" fill="#FFFFF7"/>
</svg>
