<svg width="24" height="24" viewBox="0 0 24 24" fill="none" xmlns="http://www.w3.org/2000/svg">
<path d="M20.1221 12.6525C20.2984 12.4837 20.3996 12.2475 20.3996 12C20.3996 11.7525 20.2984 11.52 20.1221 11.3475L13.5221 5.0475C13.1621 4.7025 12.5921 4.7175 12.2509 5.0775C11.9096 5.4375 11.9209 6.0075 12.2809 6.34875L17.2534 11.1H4.49961C4.00086 11.1 3.59961 11.5012 3.59961 12C3.59961 12.4987 4.00086 12.9 4.49961 12.9H17.2534L12.2771 17.6475C11.9171 17.9925 11.9059 18.5587 12.2471 18.9187C12.5884 19.2787 13.1584 19.29 13.5184 18.9487L20.1184 12.6487L20.1221 12.6525Z" fill="#202020"/>
</svg>
