<svg width="24" height="24" viewBox="0 0 24 24" fill="none" xmlns="http://www.w3.org/2000/svg">
<path d="M3.87711 12.6525C3.70086 12.48 3.59961 12.2475 3.59961 12C3.59961 11.7525 3.70086 11.52 3.87711 11.3475L10.4771 5.0475C10.8371 4.7025 11.4071 4.7175 11.7484 5.0775C12.0896 5.4375 12.0784 6.0075 11.7184 6.34875L6.74586 11.1H19.4996C19.9984 11.1 20.3996 11.5012 20.3996 12C20.3996 12.4987 19.9984 12.9 19.4996 12.9H6.74586L11.7221 17.6475C12.0821 17.9925 12.0934 18.5587 11.7521 18.9187C11.4109 19.2787 10.8409 19.29 10.4809 18.9487L3.88086 12.6487L3.87711 12.6525Z" fill="#032B4E"/>
</svg>
