<svg width="16" height="16" viewBox="0 0 16 16" fill="none" xmlns="http://www.w3.org/2000/svg">
<path d="M11.2271 12.0775L3.92211 4.7725C3.21961 5.6575 2.79961 6.78 2.79961 8C2.79961 10.8725 5.12711 13.2 7.99961 13.2C9.21961 13.2 10.3421 12.78 11.2271 12.0775ZM12.0746 11.23C12.7796 10.3425 13.1996 9.22 13.1996 8C13.1996 5.1275 10.8721 2.8 7.99961 2.8C6.77961 2.8 5.65711 3.22 4.77211 3.9225L12.0771 11.2275L12.0746 11.23ZM1.59961 8C1.59961 6.30261 2.27389 4.67475 3.47413 3.47452C4.67436 2.27428 6.30222 1.6 7.99961 1.6C9.69699 1.6 11.3249 2.27428 12.5251 3.47452C13.7253 4.67475 14.3996 6.30261 14.3996 8C14.3996 9.69738 13.7253 11.3252 12.5251 12.5255C11.3249 13.7257 9.69699 14.4 7.99961 14.4C6.30222 14.4 4.67436 13.7257 3.47413 12.5255C2.27389 11.3252 1.59961 9.69738 1.59961 8Z" fill="white"/>
</svg>
