<svg width="43" height="32" viewBox="0 0 43 32" fill="none" xmlns="http://www.w3.org/2000/svg">
<path opacity="0.4" d="M10.6379 31.5C11.2354 31.5 11.7241 31.0112 11.7241 30.4138V28.7845C11.7241 24.2835 15.3697 20.6379 19.8707 20.6379H23.1293C27.6303 20.6379 31.2759 24.2835 31.2759 28.7845V30.4138C31.2759 31.0112 31.7647 31.5 32.3621 31.5H10.6379ZM26.931 7.60346C26.931 9.04386 26.3588 10.4253 25.3403 11.4438C24.3218 12.4623 22.9404 13.0345 21.5 13.0345C20.0596 13.0345 18.6782 12.4623 17.6597 11.4438C16.6412 10.4253 16.069 9.04386 16.069 7.60346C16.069 6.16306 16.6412 4.78165 17.6597 3.76314C18.6782 2.74462 20.0596 2.17242 21.5 2.17242C22.9404 2.17242 24.3218 2.74462 25.3403 3.76314C26.3588 4.78165 26.931 6.16306 26.931 7.60346Z" fill="#043D6F"/>
<path d="M21.5 13.0345C22.9404 13.0345 24.3218 12.4623 25.3403 11.4438C26.3589 10.4253 26.9311 9.04385 26.9311 7.60345C26.9311 6.16305 26.3589 4.78164 25.3403 3.76313C24.3218 2.74461 22.9404 2.17241 21.5 2.17241C20.0596 2.17241 18.6782 2.74461 17.6597 3.76313C16.6412 4.78164 16.069 6.16305 16.069 7.60345C16.069 9.04385 16.6412 10.4253 17.6597 11.4438C18.6782 12.4623 20.0596 13.0345 21.5 13.0345ZM21.5 0C23.5166 0 25.4505 0.801075 26.8765 2.227C28.3024 3.65292 29.1035 5.58689 29.1035 7.60345C29.1035 9.62001 28.3024 11.554 26.8765 12.9799C25.4505 14.4058 23.5166 15.2069 21.5 15.2069C19.4835 15.2069 17.5495 14.4058 16.1236 12.9799C14.6976 11.554 13.8966 9.62001 13.8966 7.60345C13.8966 5.58689 14.6976 3.65292 16.1236 2.227C17.5495 0.801075 19.4835 0 21.5 0ZM19.8707 20.6379C15.3697 20.6379 11.7242 24.2835 11.7242 28.7845V30.4138C11.7242 31.0112 11.2354 31.5 10.6379 31.5C10.0405 31.5 9.55174 31.0112 9.55174 30.4138V28.7845C9.55174 23.0887 14.1749 18.4655 19.8707 18.4655H23.1293C28.8251 18.4655 33.4483 23.0887 33.4483 28.7845V30.4138C33.4483 31.0112 32.9595 31.5 32.3621 31.5C31.7647 31.5 31.2759 31.0112 31.2759 30.4138V28.7845C31.2759 24.2835 27.6303 20.6379 23.1293 20.6379H19.8707ZM29.0627 15.397C29.5923 14.881 30.0743 14.3108 30.4884 13.6998C31.0518 13.9713 31.69 14.1207 32.3621 14.1207C34.7585 14.1207 36.7069 12.1723 36.7069 9.77586C36.7069 7.37942 34.7585 5.43103 32.3621 5.43103C32.2874 5.43103 32.2195 5.43103 32.1448 5.43782C31.9955 4.70463 31.7715 3.99181 31.4795 3.31972C31.7647 3.27899 32.0634 3.25862 32.3553 3.25862C35.9534 3.25862 38.8725 6.1778 38.8725 9.77586C38.8725 13.3739 35.9534 16.2931 32.3553 16.2931C31.1537 16.2931 30.0267 15.9672 29.0559 15.397H29.0627ZM10.6379 3.25862C10.9367 3.25862 11.2286 3.27899 11.5137 3.31972C11.2218 3.99181 10.9978 4.70463 10.8484 5.43782C10.7737 5.43103 10.7058 5.43103 10.6312 5.43103C8.23471 5.43103 6.28633 7.37942 6.28633 9.77586C6.28633 12.1723 8.23471 14.1207 10.6312 14.1207C11.3032 14.1207 11.9346 13.9713 12.4981 13.6998C12.9122 14.3176 13.3942 14.881 13.9237 15.397C12.9597 15.9672 11.8328 16.2931 10.6244 16.2931C7.02631 16.2931 4.10713 13.3739 4.10713 9.77586C4.10713 6.1778 7.02631 3.25862 10.6244 3.25862H10.6379ZM9.91834 19.5517C9.26661 20.251 8.68956 21.0181 8.20077 21.8463C4.65023 22.4845 1.94829 25.5938 1.94829 29.3276V30.4138C1.94829 31.0112 1.4595 31.5 0.862086 31.5C0.264672 31.5 -0.224121 31.0112 -0.224121 30.4138V29.3276C-0.224121 23.9305 4.15465 19.5517 9.55174 19.5517H9.91834ZM34.8061 21.8463C34.3173 21.0249 33.7402 20.251 33.0885 19.5517H33.4483C38.8454 19.5517 43.2242 23.9305 43.2242 29.3276V30.4138C43.2242 31.0112 42.7354 31.5 42.1379 31.5C41.5405 31.5 41.0517 31.0112 41.0517 30.4138V29.3276C41.0517 25.5938 38.3566 22.4845 34.7993 21.8463H34.8061Z" fill="#043D6F"/>
</svg>
