<svg width="20" height="20" viewBox="0 0 20 20" fill="none" xmlns="http://www.w3.org/2000/svg">
<rect width="20" height="20" rx="10" fill="white"/>
<path d="M14.7813 6.28123C15.0751 5.98748 15.0751 5.51248 14.7813 5.22185C14.4876 4.93123 14.0126 4.9281 13.722 5.22185L10.0032 8.9406L6.28135 5.21873C5.9876 4.92498 5.5126 4.92498 5.22197 5.21873C4.93135 5.51248 4.92822 5.98748 5.22197 6.2781L8.94072 9.99685L5.21885 13.7187C4.9251 14.0125 4.9251 14.4875 5.21885 14.7781C5.5126 15.0687 5.9876 15.0718 6.27822 14.7781L9.99697 11.0594L13.7188 14.7812C14.0126 15.075 14.4876 15.075 14.7782 14.7812C15.0688 14.4875 15.072 14.0125 14.7782 13.7219L11.0595 10.0031L14.7813 6.28123Z" fill="#032B4E"/>
</svg>
