<svg width="20" height="20" viewBox="0 0 20 20" fill="none" xmlns="http://www.w3.org/2000/svg">
<path d="M14.7809 6.28086C15.0746 5.98711 15.0746 5.51211 14.7809 5.22148C14.4871 4.93086 14.0121 4.92773 13.7215 5.22148L10.0027 8.94023L6.28086 5.21836C5.98711 4.92461 5.51211 4.92461 5.22148 5.21836C4.93086 5.51211 4.92773 5.98711 5.22148 6.27773L8.94023 9.99648L5.21836 13.7184C4.92461 14.0121 4.92461 14.4871 5.21836 14.7777C5.51211 15.0684 5.98711 15.0715 6.27773 14.7777L9.99648 11.059L13.7184 14.7809C14.0121 15.0746 14.4871 15.0746 14.7777 14.7809C15.0684 14.4871 15.0715 14.0121 14.7777 13.7215L11.059 10.0027L14.7809 6.28086Z" fill="#202020"/>
</svg>
