<svg width="41" height="40" viewBox="0 0 41 40" fill="none" xmlns="http://www.w3.org/2000/svg">
<path opacity="0.4" d="M2.22217 12.2222C2.22217 14.2431 2.88883 16.1389 4.06245 17.7292C4.50689 18.3403 4.618 19.132 4.34717 19.8333L2.81939 23.8472L8.34022 21.7431C8.79856 21.5695 9.3055 21.5486 9.77772 21.6945C10.8888 22.0347 12.0833 22.2153 13.3333 22.2153C19.6527 22.2153 24.4444 17.5625 24.4444 12.2153C24.4444 6.86806 19.6527 2.22223 13.3333 2.22223C7.01383 2.22223 2.22217 6.87501 2.22217 12.2222ZM15.7916 27.6042C16.8333 32.0347 21.1666 35.5556 26.6666 35.5556C27.9166 35.5556 29.1111 35.3681 30.2222 35.0347C30.6944 34.8889 31.2013 34.9097 31.6597 35.0833L37.1805 37.1875L35.6527 33.1736C35.3819 32.4653 35.493 31.6736 35.9374 31.0695C37.1041 29.4792 37.7777 27.5903 37.7777 25.5625C37.7777 21.0625 34.3819 17.0556 29.5416 15.8958C27.9513 22.1111 22.3958 26.6875 15.7916 27.6111V27.6042Z" fill="#043D6F"/>
<path d="M4.34722 19.8333C4.61111 19.1319 4.50694 18.3333 4.0625 17.7292C2.88889 16.1389 2.22222 14.2431 2.22222 12.2222C2.22222 6.875 7.01389 2.22222 13.3333 2.22222C19.6528 2.22222 24.4444 6.875 24.4444 12.2222C24.4444 17.5694 19.6528 22.2222 13.3333 22.2222C12.0833 22.2222 10.8889 22.0347 9.77778 21.7014C9.30556 21.5556 8.79861 21.5764 8.34028 21.75L2.81944 23.8542L4.34722 19.8403V19.8333ZM0 12.2222C0 14.75 0.833333 17.0972 2.27083 19.0417L0.0902778 24.7569C0.0277778 24.9167 0 25.0833 0 25.2569C0 26.0347 0.631944 26.6667 1.40972 26.6667C1.58333 26.6667 1.75 26.6319 1.90972 26.5764L9.13194 23.8264C10.4514 24.2292 11.8681 24.4444 13.3403 24.4444C20.7014 24.4444 26.6736 18.9722 26.6736 12.2222C26.6736 5.47222 20.6944 0 13.3333 0C5.97222 0 0 5.47222 0 12.2222ZM26.6667 37.7778C28.1389 37.7778 29.5486 37.5625 30.875 37.1597L38.0972 39.9097C38.2569 39.9722 38.4306 40 38.5972 40C39.375 40 40.0069 39.3681 40.0069 38.5903C40.0069 38.4167 39.9722 38.25 39.9167 38.0903L37.7431 32.375C39.1736 30.4236 40.0139 28.0764 40.0139 25.5556C40.0139 19.8333 35.7292 15.0347 29.9444 13.7014C29.8681 14.4514 29.7431 15.1806 29.5556 15.8889C34.4028 17.0486 37.7917 21.0556 37.7917 25.5556C37.7917 27.5764 37.125 29.4722 35.9514 31.0625C35.5069 31.6736 35.3958 32.4653 35.6667 33.1667L37.1944 37.1806L31.6736 35.0764C31.2153 34.9028 30.7083 34.8819 30.2361 35.0278C29.125 35.3681 27.9306 35.5486 26.6806 35.5486C21.1875 35.5486 16.8472 32.0278 15.8056 27.5972C15.0694 27.7014 14.3194 27.7569 13.5625 27.7639C14.7014 33.4514 20.1389 37.7639 26.6736 37.7639L26.6667 37.7778Z" fill="#043D6F"/>
</svg>
