<svg width="45" height="40" viewBox="0 0 45 40" fill="none" xmlns="http://www.w3.org/2000/svg">
<path opacity="0.4" d="M2.5 13.75L19.8906 2.57031L20.4453 2.92188C19.3594 4.82813 18.7422 7.03906 18.7422 9.38281C18.7422 10.9141 19.0078 12.3828 19.4844 13.75H2.5ZM7.5 16.25H13.75V31.25H7.5V16.25ZM16.25 16.25H20.6875C21.5 17.5703 22.5391 18.7344 23.75 19.6875V31.25H16.25V16.25ZM26.25 21.2422C27.9531 22.0547 29.8594 22.5078 31.875 22.5078C32.0859 22.5078 32.2891 22.5 32.5 22.4922V31.25H26.25V21.2422Z" fill="#043D6F"/>
<path d="M32.5 22.4922C33.3594 22.4531 34.1953 22.3281 35 22.1328V31.25H36.25C36.9375 31.25 37.5 31.8125 37.5 32.5C37.5 33.1875 36.9375 33.75 36.25 33.75H3.75C3.0625 33.75 2.5 33.1875 2.5 32.5C2.5 31.8125 3.0625 31.25 3.75 31.25H5V16.25H2.5C1.39063 16.25 0.414063 15.5156 0.101563 14.4531C-0.210938 13.3906 0.21875 12.2422 1.14844 11.6484L18.6484 0.398438C19.4688 -0.132812 20.5313 -0.132812 21.3516 0.398438L21.9531 0.789062C21.4063 1.42188 20.9219 2.10156 20.5 2.82812L20 2.5L2.5 13.75H19.4922C19.8047 14.6328 20.2031 15.4688 20.6875 16.25H16.25V31.25H23.75V19.6875C24.5156 20.2969 25.3594 20.8203 26.25 21.2422V31.25H32.5V22.4922ZM7.5 16.25V31.25H13.75V16.25H7.5ZM0 38.75C0 38.0625 0.5625 37.5 1.25 37.5H38.75C39.4375 37.5 40 38.0625 40 38.75C40 39.4375 39.4375 40 38.75 40H1.25C0.5625 40 0 39.4375 0 38.75ZM31.875 16.2578C33.6984 16.2578 35.4471 15.5335 36.7364 14.2442C38.0257 12.9549 38.75 11.2062 38.75 9.38281C38.75 7.55945 38.0257 5.81077 36.7364 4.52145C35.4471 3.23214 33.6984 2.50781 31.875 2.50781C30.0516 2.50781 28.303 3.23214 27.0136 4.52145C25.7243 5.81077 25 7.55945 25 9.38281C25 11.2062 25.7243 12.9549 27.0136 14.2442C28.303 15.5335 30.0516 16.2578 31.875 16.2578ZM31.875 18.7578C26.6953 18.7578 22.5 14.5625 22.5 9.38281C22.5 4.20312 26.6953 0.00781252 31.875 0.00781252C37.0547 0.00781252 41.25 4.20312 41.25 9.38281C41.25 11.5156 40.5391 13.4922 39.3281 15.0625L44.6328 20.375C45.1172 20.8672 45.1172 21.6562 44.6328 22.1406C44.1484 22.625 43.3516 22.625 42.8672 22.1406L37.5703 16.8359C35.9922 18.0391 34.0234 18.7578 31.8828 18.7578H31.875Z" fill="#043D6F"/>
</svg>
