<svg width="80" height="80" viewBox="0 0 80 80" fill="none" xmlns="http://www.w3.org/2000/svg">
<path d="M36.9999 11C36.9999 9.3375 38.3374 8 39.9999 8C41.6624 8 42.9999 9.3375 42.9999 11V14H63.0374C63.6499 14 64.2249 14.275 64.5999 14.75L70.9999 22.75C71.5874 23.475 71.5874 24.5125 70.9999 25.25L64.5999 33.25C64.2249 33.725 63.6499 34 63.0374 34H42.9999V38H62.9999C65.7624 38 67.9999 40.2375 67.9999 43V53C67.9999 55.7625 65.7624 58 62.9999 58H42.9999V69C42.9999 70.6625 41.6624 72 39.9999 72C38.3374 72 36.9999 70.6625 36.9999 69V58H16.9625C16.3499 58 15.775 57.725 15.4 57.25L8.99995 49.25C8.41245 48.525 8.41245 47.4875 8.99995 46.75L15.4 38.75C15.775 38.275 16.3499 38 16.9625 38H36.9999V34H16C13.7875 34 12 32.2125 12 30V19C12 16.2375 14.2375 14 17 14H36.9999V11ZM18 20V28H61.1124L64.3124 24L61.1124 20H18ZM61.9999 52V44H18.8875L15.6875 48L18.8875 52H61.9999Z" fill="#006627"/>
</svg>
