<svg width="20" height="20" viewBox="0 0 20 20" fill="none" xmlns="http://www.w3.org/2000/svg">
<path d="M14.5312 8.78125L10.5312 12.7812C10.2375 13.075 9.7625 13.075 9.47188 12.7812L5.46875 8.78125C5.175 8.4875 5.175 8.0125 5.46875 7.72188C5.7625 7.43125 6.2375 7.42813 6.52813 7.72188L9.24687 10.4406L9.25 2.75C9.25 2.33437 9.58437 2 10 2C10.4156 2 10.75 2.33437 10.75 2.75V10.4406L13.4688 7.72188C13.7625 7.42813 14.2375 7.42813 14.5281 7.72188C14.8187 8.01562 14.8219 8.49062 14.5281 8.78125H14.5312ZM4.5 12.75V15.25C4.5 15.9406 5.05938 16.5 5.75 16.5H14.25C14.9406 16.5 15.5 15.9406 15.5 15.25V12.75C15.5 12.3344 15.8344 12 16.25 12C16.6656 12 17 12.3344 17 12.75V15.25C17 16.7688 15.7688 18 14.25 18H5.75C4.23125 18 3 16.7688 3 15.25V12.75C3 12.3344 3.33437 12 3.75 12C4.16562 12 4.5 12.3344 4.5 12.75Z" fill="white"/>
</svg>
