<svg width="56" height="60" viewBox="0 0 56 60" fill="none" xmlns="http://www.w3.org/2000/svg">
<path d="M14 0C15.1 0 16 0.9 16 2V8H40V2C40 0.9 40.9 0 42 0C43.1 0 44 0.9 44 2V8H48C52.4125 8 56 11.5875 56 16V52C56 56.4125 52.4125 60 48 60H8C3.5875 60 0 56.4125 0 52V16C0 11.5875 3.5875 8 8 8H12V2C12 0.9 12.9 0 14 0ZM48 12H8C5.7875 12 4 13.7875 4 16V52C4 54.2125 5.7875 56 8 56H48C50.2125 56 52 54.2125 52 52V16C52 13.7875 50.2125 12 48 12ZM31.5875 21.75L34.025 26.7L39.4875 27.5C42.7625 27.975 44.075 32.0125 41.7 34.325L37.75 38.175L38.6875 43.6125C39.25 46.875 35.8125 49.375 32.8875 47.825L28 45.25L23.1125 47.825C20.175 49.375 16.75 46.875 17.3125 43.6125L18.25 38.175L14.3 34.325C11.925 32.0125 13.2375 27.975 16.5125 27.5L21.975 26.7L24.4125 21.75C25.875 18.775 30.125 18.775 31.5875 21.75ZM25.0875 29.4125C24.8 30 24.2375 30.4125 23.5875 30.5125L17.0875 31.4625L21.8 36.05C22.275 36.5125 22.4875 37.175 22.375 37.825L21.2625 44.3L27.075 41.2375C27.6625 40.9375 28.35 40.9375 28.9375 41.2375L34.75 44.3L33.6375 37.825C33.525 37.175 33.7375 36.5125 34.2125 36.05L38.925 31.4625L32.425 30.5125C31.775 30.4125 31.2125 30.0125 30.925 29.4125L28.0125 23.5125L25.1 29.4125H25.0875Z" fill="#EBCA28"/>
</svg>
