<svg width="10" height="19" viewBox="0 0 10 19" fill="none" xmlns="http://www.w3.org/2000/svg">
<path fill-rule="evenodd" clip-rule="evenodd" d="M7.86764 3.15226C8.456 3.15226 9.06583 3.15226 9.63271 3.15226H9.87321V0.0945298C9.55971 0.0945298 9.23761 0.0215217 8.90264 4.88227e-05C8.3014 4.88227e-05 7.70445 4.88227e-05 7.10321 4.88227e-05C6.19276 -0.00424575 5.30808 0.2749 4.56083 0.790248C3.73198 1.40008 3.18227 2.31482 3.03626 3.33263C2.96754 3.73632 2.92889 4.14431 2.91601 4.55659C2.91601 5.23942 2.91601 5.92226 2.91601 6.60939V6.95725H0V10.3628H2.89024V18.9176H6.48909V10.3285H9.37933L9.72719 6.95725H6.36884C6.36884 6.95725 6.36884 5.26519 6.36884 4.55659C6.46333 3.47435 7.06456 3.17373 7.86764 3.15226Z" fill="white"/>
</svg>
