<svg width="80" height="80" viewBox="0 0 80 80" fill="none" xmlns="http://www.w3.org/2000/svg">
<path d="M9.99991 24.0003C9.99991 22.9003 10.8999 22.0003 11.9999 22.0003H67.9999C69.0999 22.0003 69.9999 22.9003 69.9999 24.0003V29.6128C66.4124 31.6878 63.9999 35.5628 63.9999 40.0003C63.9999 44.4378 66.4124 48.3253 69.9999 50.3878V56.0003C69.9999 57.1003 69.0999 58.0003 67.9999 58.0003H11.9999C10.8999 58.0003 9.99991 57.1003 9.99991 56.0003V24.0003ZM11.9999 16.0003C7.58741 16.0003 3.99991 19.5878 3.99991 24.0003V56.0003C3.99991 60.4128 7.58741 64.0003 11.9999 64.0003H67.9999C72.4124 64.0003 75.9999 60.4128 75.9999 56.0003V48.0003C75.9999 46.9003 75.0749 46.0378 74.0374 45.6753C71.6874 44.8628 69.9999 42.6253 69.9999 40.0003C69.9999 37.3753 71.6874 35.1378 74.0374 34.3253C75.0749 33.9628 75.9999 33.1003 75.9999 32.0003V24.0003C75.9999 19.5878 72.4124 16.0003 67.9999 16.0003H11.9999ZM55.9999 31.0003C56.7956 31.0003 57.5586 30.6842 58.1212 30.1216C58.6838 29.559 58.9999 28.796 58.9999 28.0003C58.9999 27.2047 58.6838 26.4416 58.1212 25.879C57.5586 25.3164 56.7956 25.0003 55.9999 25.0003C55.2043 25.0003 54.4412 25.3164 53.8786 25.879C53.316 26.4416 52.9999 27.2047 52.9999 28.0003C52.9999 28.796 53.316 29.559 53.8786 30.1216C54.4412 30.6842 55.2043 31.0003 55.9999 31.0003ZM55.9999 43.0003C56.7956 43.0003 57.5586 42.6842 58.1212 42.1216C58.6838 41.559 58.9999 40.796 58.9999 40.0003C58.9999 39.2047 58.6838 38.4416 58.1212 37.879C57.5586 37.3164 56.7956 37.0003 55.9999 37.0003C55.2043 37.0003 54.4412 37.3164 53.8786 37.879C53.316 38.4416 52.9999 39.2047 52.9999 40.0003C52.9999 40.796 53.316 41.559 53.8786 42.1216C54.4412 42.6842 55.2043 43.0003 55.9999 43.0003ZM58.9999 52.0003C58.9999 51.2047 58.6838 50.4416 58.1212 49.879C57.5586 49.3164 56.7956 49.0003 55.9999 49.0003C55.2043 49.0003 54.4412 49.3164 53.8786 49.879C53.316 50.4416 52.9999 51.2047 52.9999 52.0003C52.9999 52.796 53.316 53.559 53.8786 54.1216C54.4412 54.6842 55.2043 55.0003 55.9999 55.0003C56.7956 55.0003 57.5586 54.6842 58.1212 54.1216C58.6838 53.559 58.9999 52.796 58.9999 52.0003Z" fill="#EBCA28"/>
</svg>
