<svg width="20" height="20" viewBox="0 0 20 20" fill="none" xmlns="http://www.w3.org/2000/svg">
<path d="M7.5 4C7.5 3.725 7.725 3.5 8 3.5H13.9812C14.1125 3.5 14.2406 3.55313 14.3344 3.64688L15.3531 4.66563C15.4469 4.75938 15.5 4.8875 15.5 5.01875V7H17V5.01875C17 4.4875 16.7906 3.97812 16.4156 3.60312L15.3969 2.58438C15.0219 2.20938 14.5125 2 13.9812 2H8C6.89687 2 6 2.89688 6 4V6.0625C5.84063 6.02187 5.67188 6 5.5 6H4C2.89688 6 2 6.89687 2 8V16C2 17.1031 2.89688 18 4 18H5H5.5H16C17.1031 18 18 17.1031 18 16V10C18 8.89687 17.1031 8 16 8H7.5V4ZM7.5 9.5H16C16.275 9.5 16.5 9.725 16.5 10V16C16.5 16.275 16.275 16.5 16 16.5H7.4375C7.47813 16.3406 7.5 16.1719 7.5 16V9.5ZM5.5 16.5H5H4C3.725 16.5 3.5 16.275 3.5 16V8C3.5 7.725 3.725 7.5 4 7.5H5.5C5.775 7.5 6 7.725 6 8V8.75V16C6 16.275 5.775 16.5 5.5 16.5ZM10.5 10.5C10.2348 10.5 9.98043 10.6054 9.79289 10.7929C9.60536 10.9804 9.5 11.2348 9.5 11.5C9.5 11.7652 9.60536 12.0196 9.79289 12.2071C9.98043 12.3946 10.2348 12.5 10.5 12.5C10.7652 12.5 11.0196 12.3946 11.2071 12.2071C11.3946 12.0196 11.5 11.7652 11.5 11.5C11.5 11.2348 11.3946 10.9804 11.2071 10.7929C11.0196 10.6054 10.7652 10.5 10.5 10.5ZM9.5 14.5C9.5 14.7652 9.60536 15.0196 9.79289 15.2071C9.98043 15.3946 10.2348 15.5 10.5 15.5C10.7652 15.5 11.0196 15.3946 11.2071 15.2071C11.3946 15.0196 11.5 14.7652 11.5 14.5C11.5 14.2348 11.3946 13.9804 11.2071 13.7929C11.0196 13.6054 10.7652 13.5 10.5 13.5C10.2348 13.5 9.98043 13.6054 9.79289 13.7929C9.60536 13.9804 9.5 14.2348 9.5 14.5ZM13.5 10.5C13.2348 10.5 12.9804 10.6054 12.7929 10.7929C12.6054 10.9804 12.5 11.2348 12.5 11.5C12.5 11.7652 12.6054 12.0196 12.7929 12.2071C12.9804 12.3946 13.2348 12.5 13.5 12.5C13.7652 12.5 14.0196 12.3946 14.2071 12.2071C14.3946 12.0196 14.5 11.7652 14.5 11.5C14.5 11.2348 14.3946 10.9804 14.2071 10.7929C14.0196 10.6054 13.7652 10.5 13.5 10.5ZM12.5 14.5C12.5 14.7652 12.6054 15.0196 12.7929 15.2071C12.9804 15.3946 13.2348 15.5 13.5 15.5C13.7652 15.5 14.0196 15.3946 14.2071 15.2071C14.3946 15.0196 14.5 14.7652 14.5 14.5C14.5 14.2348 14.3946 13.9804 14.2071 13.7929C14.0196 13.6054 13.7652 13.5 13.5 13.5C13.2348 13.5 12.9804 13.6054 12.7929 13.7929C12.6054 13.9804 12.5 14.2348 12.5 14.5Z" fill="#F5D109"/>
</svg>
