<svg width="30" height="30" viewBox="0 0 30 30" fill="none" xmlns="http://www.w3.org/2000/svg">
<path d="M27 15C27 8.37188 21.6281 3 15 3C8.37188 3 3 8.37188 3 15C3 20.625 6.87656 25.35 12.1031 26.6484V18.6656H9.62812V15H12.1031V13.4203C12.1031 9.3375 13.95 7.44375 17.9625 7.44375C18.7219 7.44375 20.0344 7.59375 20.5734 7.74375V11.0625C20.2922 11.0344 19.8 11.0156 19.1859 11.0156C17.2172 11.0156 16.4578 11.7609 16.4578 13.6969V15H20.3766L19.7016 18.6656H16.4531V26.9109C22.3969 26.1938 27 21.1359 27 15Z" fill="#202020"/>
</svg>
