<svg width="20" height="20" viewBox="0 0 20 20" fill="none" xmlns="http://www.w3.org/2000/svg">
<path d="M10 16.5C10.2312 16.5 10.8438 16.275 11.4875 14.9875C11.7625 14.4344 12 13.7625 12.175 13H7.825C8 13.7625 8.2375 14.4344 8.5125 14.9875C9.15625 16.275 9.76875 16.5 10 16.5ZM7.57812 11.5H12.4219C12.4719 11.0219 12.5 10.5188 12.5 10C12.5 9.48125 12.4719 8.97813 12.4219 8.5H7.57812C7.52812 8.97813 7.5 9.48125 7.5 10C7.5 10.5188 7.52812 11.0219 7.57812 11.5ZM7.825 7H12.175C12 6.2375 11.7625 5.56563 11.4875 5.0125C10.8438 3.725 10.2312 3.5 10 3.5C9.76875 3.5 9.15625 3.725 8.5125 5.0125C8.2375 5.56563 8 6.2375 7.825 7ZM13.9281 8.5C13.975 8.98438 13.9969 9.4875 13.9969 10C13.9969 10.5125 13.9719 11.0156 13.9281 11.5H16.325C16.4375 11.0188 16.5 10.5156 16.5 10C16.5 9.48438 16.4406 8.98125 16.325 8.5H13.9281ZM15.7656 7C15.0969 5.71563 14.0125 4.68437 12.6906 4.08125C13.1313 4.88125 13.4813 5.87812 13.7094 7H15.7688H15.7656ZM6.2875 7C6.51562 5.87812 6.86562 4.88438 7.30625 4.08125C5.98438 4.68437 4.9 5.71563 4.23125 7H6.29063H6.2875ZM3.675 8.5C3.5625 8.98125 3.5 9.48438 3.5 10C3.5 10.5156 3.55937 11.0188 3.675 11.5H6.07188C6.025 11.0156 6.00313 10.5125 6.00313 10C6.00313 9.4875 6.02813 8.98438 6.07188 8.5H3.675ZM12.6906 15.9187C14.0125 15.3156 15.0969 14.2844 15.7656 13H13.7063C13.4781 14.1219 13.1281 15.1156 12.6875 15.9187H12.6906ZM7.30937 15.9187C6.86875 15.1187 6.51875 14.1219 6.29063 13H4.23125C4.9 14.2844 5.98438 15.3156 7.30625 15.9187H7.30937ZM10 18C7.87827 18 5.84344 17.1571 4.34315 15.6569C2.84285 14.1566 2 12.1217 2 10C2 7.87827 2.84285 5.84344 4.34315 4.34315C5.84344 2.84285 7.87827 2 10 2C12.1217 2 14.1566 2.84285 15.6569 4.34315C17.1571 5.84344 18 7.87827 18 10C18 12.1217 17.1571 14.1566 15.6569 15.6569C14.1566 17.1571 12.1217 18 10 18Z" fill="#202020"/>
</svg>
