<svg width="40" height="40" viewBox="0 0 40 40" fill="none" xmlns="http://www.w3.org/2000/svg">
<path d="M24.7437 30.7C23.325 33.575 21.575 35 20 35C18.425 35 16.675 33.575 15.2563 30.7C13.9375 28.0188 13.075 24.3687 13.0063 20.5H27C26.9312 24.3687 26.0688 28.0188 24.7437 30.7ZM26.9937 19.5H13C13.075 15.6313 13.9375 11.9813 15.2563 9.3C16.675 6.425 18.425 5 20 5C21.575 5 23.325 6.425 24.7437 9.3C26.0625 11.9813 26.9312 15.625 27 19.5H26.9937ZM27.9937 20.5H34.9875C34.7562 27.5 29.7313 33.2875 23.0875 34.6812C25.8813 32.2125 27.8875 26.5938 27.9937 20.5ZM34.9875 19.5H27.9937C27.8937 13.4062 25.8813 7.7875 23.0875 5.31875C29.7313 6.7125 34.7625 12.5 34.9937 19.5H34.9875ZM12 19.5H5.00625C5.2375 12.5 10.2625 6.7125 16.9062 5.31875C14.1125 7.7875 12.1062 13.4062 12 19.5ZM5.00625 20.5H12C12.1062 26.5938 14.1188 32.2125 16.9125 34.6812C10.2688 33.2875 5.2375 27.5 5.00625 20.5ZM20 36C24.2435 36 28.3131 34.3143 31.3137 31.3137C34.3143 28.3131 36 24.2435 36 20C36 15.7565 34.3143 11.6869 31.3137 8.68629C28.3131 5.68571 24.2435 4 20 4C15.7565 4 11.6869 5.68571 8.68629 8.68629C5.68571 11.6869 4 15.7565 4 20C4 24.2435 5.68571 28.3131 8.68629 31.3137C11.6869 34.3143 15.7565 36 20 36Z" fill="#F5D109"/>
</svg>
