<svg width="16" height="16" viewBox="0 0 16 16" fill="none" xmlns="http://www.w3.org/2000/svg">
<path d="M4.4002 3.79995C4.4002 3.87874 4.38468 3.95677 4.35452 4.02956C4.32437 4.10236 4.28017 4.1685 4.22446 4.22422C4.16874 4.27993 4.1026 4.32413 4.02981 4.35428C3.95701 4.38443 3.87899 4.39995 3.8002 4.39995C3.7214 4.39995 3.64338 4.38443 3.57059 4.35428C3.49779 4.32413 3.43165 4.27993 3.37593 4.22422C3.32022 4.1685 3.27602 4.10236 3.24587 4.02956C3.21571 3.95677 3.2002 3.87874 3.2002 3.79995C3.2002 3.72116 3.21571 3.64314 3.24587 3.57034C3.27602 3.49755 3.32022 3.4314 3.37593 3.37569C3.43165 3.31997 3.49779 3.27578 3.57059 3.24562C3.64338 3.21547 3.7214 3.19995 3.8002 3.19995C3.87899 3.19995 3.95701 3.21547 4.02981 3.24562C4.1026 3.27578 4.16874 3.31997 4.22446 3.37569C4.28017 3.4314 4.32437 3.49755 4.35452 3.57034C4.38468 3.64314 4.4002 3.72116 4.4002 3.79995ZM3.8002 2.19995C3.37585 2.19995 2.96888 2.36852 2.66882 2.66858C2.36877 2.96864 2.2002 3.3756 2.2002 3.79995C2.2002 4.2243 2.36877 4.63126 2.66882 4.93132C2.96888 5.23138 3.37585 5.39995 3.8002 5.39995C4.22454 5.39995 4.63151 5.23138 4.93157 4.93132C5.23162 4.63126 5.4002 4.2243 5.4002 3.79995C5.4002 3.3756 5.23162 2.96864 4.93157 2.66858C4.63151 2.36852 4.22454 2.19995 3.8002 2.19995ZM4.4002 7.99995C4.4002 8.07874 4.38468 8.15677 4.35452 8.22956C4.32437 8.30236 4.28017 8.3685 4.22446 8.42422C4.16874 8.47993 4.1026 8.52413 4.02981 8.55428C3.95701 8.58443 3.87899 8.59995 3.8002 8.59995C3.7214 8.59995 3.64338 8.58443 3.57059 8.55428C3.49779 8.52413 3.43165 8.47993 3.37593 8.42422C3.32022 8.3685 3.27602 8.30236 3.24587 8.22956C3.21571 8.15677 3.2002 8.07874 3.2002 7.99995C3.2002 7.92116 3.21571 7.84314 3.24587 7.77034C3.27602 7.69755 3.32022 7.6314 3.37593 7.57569C3.43165 7.51997 3.49779 7.47578 3.57059 7.44562C3.64338 7.41547 3.7214 7.39995 3.8002 7.39995C3.87899 7.39995 3.95701 7.41547 4.02981 7.44562C4.1026 7.47578 4.16874 7.51997 4.22446 7.57569C4.28017 7.6314 4.32437 7.69755 4.35452 7.77034C4.38468 7.84314 4.4002 7.92116 4.4002 7.99995ZM3.8002 6.39995C3.37585 6.39995 2.96888 6.56852 2.66882 6.86858C2.36877 7.16864 2.2002 7.5756 2.2002 7.99995C2.2002 8.4243 2.36877 8.83126 2.66882 9.13132C2.96888 9.43138 3.37585 9.59995 3.8002 9.59995C4.22454 9.59995 4.63151 9.43138 4.93157 9.13132C5.23162 8.83126 5.4002 8.4243 5.4002 7.99995C5.4002 7.5756 5.23162 7.16864 4.93157 6.86858C4.63151 6.56852 4.22454 6.39995 3.8002 6.39995ZM3.8002 11.6C3.95933 11.6 4.11194 11.6632 4.22446 11.7757C4.33698 11.8882 4.4002 12.0408 4.4002 12.2C4.4002 12.3591 4.33698 12.5117 4.22446 12.6242C4.11194 12.7367 3.95933 12.8 3.8002 12.8C3.64107 12.8 3.48845 12.7367 3.37593 12.6242C3.26341 12.5117 3.2002 12.3591 3.2002 12.2C3.2002 12.0408 3.26341 11.8882 3.37593 11.7757C3.48845 11.6632 3.64107 11.6 3.8002 11.6ZM2.2002 12.2C2.2002 12.6243 2.36877 13.0313 2.66882 13.3313C2.96888 13.6314 3.37585 13.8 3.8002 13.8C4.22454 13.8 4.63151 13.6314 4.93157 13.3313C5.23162 13.0313 5.4002 12.6243 5.4002 12.2C5.4002 11.7756 5.23162 11.3686 4.93157 11.0686C4.63151 10.7685 4.22454 10.6 3.8002 10.6C3.37585 10.6 2.96888 10.7685 2.66882 11.0686C2.36877 11.3686 2.2002 11.7756 2.2002 12.2ZM8.6002 3.79995C8.6002 3.95908 8.53698 4.11169 8.42446 4.22422C8.31194 4.33674 8.15933 4.39995 8.0002 4.39995C7.84107 4.39995 7.68845 4.33674 7.57593 4.22422C7.46341 4.11169 7.4002 3.95908 7.4002 3.79995C7.4002 3.64082 7.46341 3.48821 7.57593 3.37569C7.68845 3.26317 7.84107 3.19995 8.0002 3.19995C8.15933 3.19995 8.31194 3.26317 8.42446 3.37569C8.53698 3.48821 8.6002 3.64082 8.6002 3.79995ZM8.0002 2.19995C7.57585 2.19995 7.16888 2.36852 6.86882 2.66858C6.56877 2.96864 6.4002 3.3756 6.4002 3.79995C6.4002 4.2243 6.56877 4.63126 6.86882 4.93132C7.16888 5.23138 7.57585 5.39995 8.0002 5.39995C8.42454 5.39995 8.83151 5.23138 9.13157 4.93132C9.43162 4.63126 9.6002 4.2243 9.6002 3.79995C9.6002 3.3756 9.43162 2.96864 9.13157 2.66858C8.83151 2.36852 8.42454 2.19995 8.0002 2.19995ZM8.0002 7.39995C8.15933 7.39995 8.31194 7.46317 8.42446 7.57569C8.53698 7.68821 8.6002 7.84082 8.6002 7.99995C8.6002 8.15908 8.53698 8.31169 8.42446 8.42422C8.31194 8.53674 8.15933 8.59995 8.0002 8.59995C7.84107 8.59995 7.68845 8.53674 7.57593 8.42422C7.46341 8.31169 7.4002 8.15908 7.4002 7.99995C7.4002 7.84082 7.46341 7.68821 7.57593 7.57569C7.68845 7.46317 7.84107 7.39995 8.0002 7.39995ZM6.4002 7.99995C6.4002 8.4243 6.56877 8.83126 6.86882 9.13132C7.16888 9.43138 7.57585 9.59995 8.0002 9.59995C8.42454 9.59995 8.83151 9.43138 9.13157 9.13132C9.43162 8.83126 9.6002 8.4243 9.6002 7.99995C9.6002 7.5756 9.43162 7.16864 9.13157 6.86858C8.83151 6.56852 8.42454 6.39995 8.0002 6.39995C7.57585 6.39995 7.16888 6.56852 6.86882 6.86858C6.56877 7.16864 6.4002 7.5756 6.4002 7.99995ZM8.6002 12.2C8.6002 12.3591 8.53698 12.5117 8.42446 12.6242C8.31194 12.7367 8.15933 12.8 8.0002 12.8C7.84107 12.8 7.68845 12.7367 7.57593 12.6242C7.46341 12.5117 7.4002 12.3591 7.4002 12.2C7.4002 12.0408 7.46341 11.8882 7.57593 11.7757C7.68845 11.6632 7.84107 11.6 8.0002 11.6C8.15933 11.6 8.31194 11.6632 8.42446 11.7757C8.53698 11.8882 8.6002 12.0408 8.6002 12.2ZM8.0002 10.6C7.57585 10.6 7.16888 10.7685 6.86882 11.0686C6.56877 11.3686 6.4002 11.7756 6.4002 12.2C6.4002 12.6243 6.56877 13.0313 6.86882 13.3313C7.16888 13.6314 7.57585 13.8 8.0002 13.8C8.42454 13.8 8.83151 13.6314 9.13157 13.3313C9.43162 13.0313 9.6002 12.6243 9.6002 12.2C9.6002 11.7756 9.43162 11.3686 9.13157 11.0686C8.83151 10.7685 8.42454 10.6 8.0002 10.6ZM12.2002 3.19995C12.279 3.19995 12.357 3.21547 12.4298 3.24562C12.5026 3.27578 12.5687 3.31997 12.6245 3.37569C12.6802 3.4314 12.7244 3.49755 12.7545 3.57034C12.7847 3.64314 12.8002 3.72116 12.8002 3.79995C12.8002 3.87874 12.7847 3.95677 12.7545 4.02956C12.7244 4.10236 12.6802 4.1685 12.6245 4.22422C12.5687 4.27993 12.5026 4.32413 12.4298 4.35428C12.357 4.38443 12.279 4.39995 12.2002 4.39995C12.1214 4.39995 12.0434 4.38443 11.9706 4.35428C11.8978 4.32413 11.8316 4.27993 11.7759 4.22422C11.7202 4.1685 11.676 4.10236 11.6459 4.02956C11.6157 3.95677 11.6002 3.87874 11.6002 3.79995C11.6002 3.72116 11.6157 3.64314 11.6459 3.57034C11.676 3.49755 11.7202 3.4314 11.7759 3.37569C11.8316 3.31997 11.8978 3.27578 11.9706 3.24562C12.0434 3.21547 12.1214 3.19995 12.2002 3.19995ZM10.6002 3.79995C10.6002 4.2243 10.7688 4.63126 11.0688 4.93132C11.3689 5.23138 11.7758 5.39995 12.2002 5.39995C12.6245 5.39995 13.0315 5.23138 13.3316 4.93132C13.6316 4.63126 13.8002 4.2243 13.8002 3.79995C13.8002 3.3756 13.6316 2.96864 13.3316 2.66858C13.0315 2.36852 12.6245 2.19995 12.2002 2.19995C11.7758 2.19995 11.3689 2.36852 11.0688 2.66858C10.7688 2.96864 10.6002 3.3756 10.6002 3.79995ZM12.8002 7.99995C12.8002 8.15908 12.737 8.31169 12.6245 8.42422C12.5119 8.53674 12.3593 8.59995 12.2002 8.59995C12.0411 8.59995 11.8885 8.53674 11.7759 8.42422C11.6634 8.31169 11.6002 8.15908 11.6002 7.99995C11.6002 7.84082 11.6634 7.68821 11.7759 7.57569C11.8885 7.46317 12.0411 7.39995 12.2002 7.39995C12.3593 7.39995 12.5119 7.46317 12.6245 7.57569C12.737 7.68821 12.8002 7.84082 12.8002 7.99995ZM12.2002 6.39995C11.7758 6.39995 11.3689 6.56852 11.0688 6.86858C10.7688 7.16864 10.6002 7.5756 10.6002 7.99995C10.6002 8.4243 10.7688 8.83126 11.0688 9.13132C11.3689 9.43138 11.7758 9.59995 12.2002 9.59995C12.6245 9.59995 13.0315 9.43138 13.3316 9.13132C13.6316 8.83126 13.8002 8.4243 13.8002 7.99995C13.8002 7.5756 13.6316 7.16864 13.3316 6.86858C13.0315 6.56852 12.6245 6.39995 12.2002 6.39995ZM12.2002 11.6C12.3593 11.6 12.5119 11.6632 12.6245 11.7757C12.737 11.8882 12.8002 12.0408 12.8002 12.2C12.8002 12.3591 12.737 12.5117 12.6245 12.6242C12.5119 12.7367 12.3593 12.8 12.2002 12.8C12.0411 12.8 11.8885 12.7367 11.7759 12.6242C11.6634 12.5117 11.6002 12.3591 11.6002 12.2C11.6002 12.0408 11.6634 11.8882 11.7759 11.7757C11.8885 11.6632 12.0411 11.6 12.2002 11.6ZM10.6002 12.2C10.6002 12.6243 10.7688 13.0313 11.0688 13.3313C11.3689 13.6314 11.7758 13.8 12.2002 13.8C12.6245 13.8 13.0315 13.6314 13.3316 13.3313C13.6316 13.0313 13.8002 12.6243 13.8002 12.2C13.8002 11.7756 13.6316 11.3686 13.3316 11.0686C13.0315 10.7685 12.6245 10.6 12.2002 10.6C11.7758 10.6 11.3689 10.7685 11.0688 11.0686C10.7688 11.3686 10.6002 11.7756 10.6002 12.2Z" fill="#032B4E"/>
</svg>
