<svg width="56" height="56" viewBox="0 0 56 56" fill="none" xmlns="http://www.w3.org/2000/svg">
<path d="M29.356 6.09885C28.5685 5.43385 27.4223 5.43385 26.6348 6.09885L3.53478 25.6988C2.65103 26.4513 2.54603 27.7726 3.28978 28.6563C4.03353 29.5401 5.36353 29.6451 6.24728 28.9013L8.39978 27.0813V43.4001C8.39978 47.2676 11.5323 50.4001 15.3998 50.4001H40.5998C44.4673 50.4001 47.5998 47.2676 47.5998 43.4001V27.0813L49.7435 28.9013C50.6273 29.6538 51.9573 29.5401 52.701 28.6563C53.4448 27.7726 53.3398 26.4426 52.456 25.6988L29.356 6.09885ZM12.5998 43.4001V23.5201L27.9998 10.4563L43.3998 23.5201V43.4001C43.3998 44.9488 42.1485 46.2001 40.5998 46.2001H36.3998V32.9001C36.3998 30.9663 34.8335 29.4001 32.8998 29.4001H23.0998C21.166 29.4001 19.5998 30.9663 19.5998 32.9001V46.2001H15.3998C13.851 46.2001 12.5998 44.9488 12.5998 43.4001ZM23.7998 46.2001V33.6001H32.1998V46.2001H23.7998Z" fill="#006627"/>
</svg>
