<svg width="30" height="31" viewBox="0 0 30 31" fill="none" xmlns="http://www.w3.org/2000/svg">
<path opacity="0.4" d="M2 14.9937C2 18.3062 4.6875 20.9937 8 20.9937H13V8.99374H12.5C11 8.99374 9.5 8.99374 8 8.99374C4.6875 8.99374 2 11.6812 2 14.9937ZM15 8.92499V21.0562C19.2313 21.4125 23.2437 23.1812 26.3687 26.1L28 27.625V2.36249L26.3687 3.88749C23.2437 6.80624 19.2313 8.57499 15 8.93124V8.92499Z" fill="#043D6F"/>
<path d="M28 2.3625V27.625L26.3687 26.1C23.2437 23.1812 19.2313 21.4125 15 21.0562V8.925C19.2313 8.56875 23.2437 6.8 26.3687 3.88125L28 2.3625ZM15 23.0688C18.725 23.4188 22.25 24.9937 25.0063 27.5688L27.1125 29.5375C27.4312 29.8313 27.85 30 28.2812 30C29.2313 30 30 29.2313 30 28.2812V1.71875C30 0.76875 29.2313 0 28.2812 0C27.8438 0 27.425 0.1625 27.1125 0.4625L25.0063 2.41875C21.8687 5.35 17.7375 6.98125 13.45 6.99375H8C3.58125 6.99375 0 10.575 0 14.9937C0 18.7188 2.55 21.8562 6 22.7437V27.9937C6 29.65 7.34375 30.9937 9 30.9937H12C13.6562 30.9937 15 29.65 15 27.9937V23.0688ZM12.5 22.9937H13V27.9937C13 28.5437 12.55 28.9937 12 28.9937H9C8.45 28.9937 8 28.5437 8 27.9937V22.9937H12.5ZM12.5 8.99375H13V20.9937H8C4.6875 20.9937 2 18.3062 2 14.9937C2 11.6812 4.6875 8.99375 8 8.99375H12.5Z" fill="#043D6F"/>
</svg>
