<svg width="30" height="30" viewBox="0 0 30 30" fill="none" xmlns="http://www.w3.org/2000/svg">
<path d="M15.0047 9.60928C12.0234 9.60928 9.61875 12.014 9.61875 14.9952C9.61875 17.9765 12.0234 20.3812 15.0047 20.3812C17.9859 20.3812 20.3906 17.9765 20.3906 14.9952C20.3906 12.014 17.9859 9.60928 15.0047 9.60928ZM15.0047 18.4968C13.0781 18.4968 11.5031 16.9265 11.5031 14.9952C11.5031 13.064 13.0734 11.4937 15.0047 11.4937C16.9359 11.4937 18.5062 13.064 18.5062 14.9952C18.5062 16.9265 16.9313 18.4968 15.0047 18.4968ZM21.8672 9.38896C21.8672 10.0874 21.3047 10.6452 20.6109 10.6452C19.9125 10.6452 19.3547 10.0827 19.3547 9.38896C19.3547 8.69521 19.9172 8.13271 20.6109 8.13271C21.3047 8.13271 21.8672 8.69521 21.8672 9.38896ZM25.4344 10.664C25.3547 8.98115 24.9703 7.49053 23.7375 6.2624C22.5094 5.03428 21.0188 4.6499 19.3359 4.56553C17.6016 4.46709 12.4031 4.46709 10.6688 4.56553C8.99062 4.64521 7.5 5.02959 6.26719 6.25771C5.03438 7.48584 4.65469 8.97646 4.57031 10.6593C4.47187 12.3937 4.47187 17.5921 4.57031 19.3265C4.65 21.0093 5.03438 22.4999 6.26719 23.728C7.5 24.9562 8.98594 25.3405 10.6688 25.4249C12.4031 25.5233 17.6016 25.5233 19.3359 25.4249C21.0188 25.3452 22.5094 24.9608 23.7375 23.728C24.9656 22.4999 25.35 21.0093 25.4344 19.3265C25.5328 17.5921 25.5328 12.3983 25.4344 10.664ZM23.1937 21.1874C22.8281 22.1062 22.1203 22.814 21.1969 23.1843C19.8141 23.7327 16.5328 23.6062 15.0047 23.6062C13.4766 23.6062 10.1906 23.728 8.8125 23.1843C7.89375 22.8187 7.18594 22.1108 6.81562 21.1874C6.26719 19.8046 6.39375 16.5233 6.39375 14.9952C6.39375 13.4671 6.27188 10.1812 6.81562 8.80303C7.18125 7.88428 7.88906 7.17646 8.8125 6.80615C10.1953 6.25771 13.4766 6.38428 15.0047 6.38428C16.5328 6.38428 19.8188 6.2624 21.1969 6.80615C22.1156 7.17178 22.8234 7.87959 23.1937 8.80303C23.7422 10.1858 23.6156 13.4671 23.6156 14.9952C23.6156 16.5233 23.7422 19.8093 23.1937 21.1874Z" fill="white"/>
</svg>
