<svg width="30" height="30" viewBox="0 0 30 30" fill="none" xmlns="http://www.w3.org/2000/svg">
<path d="M15.0048 9.60937C12.0235 9.60937 9.61885 12.0141 9.61885 14.9953C9.61885 17.9766 12.0235 20.3812 15.0048 20.3812C17.986 20.3812 20.3907 17.9766 20.3907 14.9953C20.3907 12.0141 17.986 9.60937 15.0048 9.60937ZM15.0048 18.4969C13.0782 18.4969 11.5032 16.9266 11.5032 14.9953C11.5032 13.0641 13.0735 11.4937 15.0048 11.4937C16.936 11.4937 18.5063 13.0641 18.5063 14.9953C18.5063 16.9266 16.9313 18.4969 15.0048 18.4969ZM21.8673 9.38906C21.8673 10.0875 21.3048 10.6453 20.611 10.6453C19.9126 10.6453 19.3548 10.0828 19.3548 9.38906C19.3548 8.69531 19.9173 8.13281 20.611 8.13281C21.3048 8.13281 21.8673 8.69531 21.8673 9.38906ZM25.4345 10.6641C25.3548 8.98124 24.9704 7.49062 23.7376 6.26249C22.5095 5.03437 21.0188 4.64999 19.336 4.56562C17.6017 4.46718 12.4032 4.46718 10.6688 4.56562C8.99072 4.64531 7.5001 5.02968 6.26729 6.25781C5.03447 7.48593 4.65479 8.97656 4.57041 10.6594C4.47197 12.3937 4.47197 17.5922 4.57041 19.3266C4.6501 21.0094 5.03447 22.5 6.26729 23.7281C7.5001 24.9562 8.98604 25.3406 10.6688 25.425C12.4032 25.5234 17.6017 25.5234 19.336 25.425C21.0188 25.3453 22.5095 24.9609 23.7376 23.7281C24.9657 22.5 25.3501 21.0094 25.4345 19.3266C25.5329 17.5922 25.5329 12.3984 25.4345 10.6641ZM23.1938 21.1875C22.8282 22.1062 22.1204 22.8141 21.197 23.1844C19.8142 23.7328 16.5329 23.6062 15.0048 23.6062C13.4767 23.6062 10.1907 23.7281 8.8126 23.1844C7.89385 22.8187 7.18604 22.1109 6.81572 21.1875C6.26729 19.8047 6.39385 16.5234 6.39385 14.9953C6.39385 13.4672 6.27197 10.1812 6.81572 8.80312C7.18135 7.88437 7.88916 7.17656 8.8126 6.80624C10.1954 6.25781 13.4767 6.38437 15.0048 6.38437C16.5329 6.38437 19.8188 6.26249 21.197 6.80624C22.1157 7.17187 22.8235 7.87968 23.1938 8.80312C23.7423 10.1859 23.6157 13.4672 23.6157 14.9953C23.6157 16.5234 23.7423 19.8094 23.1938 21.1875Z" fill="#202020"/>
</svg>
