<svg width="16" height="16" viewBox="0 0 16 16" fill="none" xmlns="http://www.w3.org/2000/svg">
<path d="M2.4001 3.19995C2.18792 3.19995 1.98444 3.28424 1.83441 3.43427C1.68438 3.58429 1.6001 3.78778 1.6001 3.99995C1.6001 4.21212 1.68438 4.41561 1.83441 4.56564C1.98444 4.71567 2.18792 4.79995 2.4001 4.79995C2.61227 4.79995 2.81575 4.71567 2.96578 4.56564C3.11581 4.41561 3.2001 4.21212 3.2001 3.99995C3.2001 3.78778 3.11581 3.58429 2.96578 3.43427C2.81575 3.28424 2.61227 3.19995 2.4001 3.19995ZM5.4001 3.19995C5.0676 3.19995 4.8001 3.46745 4.8001 3.79995C4.8001 4.13245 5.0676 4.39995 5.4001 4.39995H13.8001C14.1326 4.39995 14.4001 4.13245 14.4001 3.79995C14.4001 3.46745 14.1326 3.19995 13.8001 3.19995H5.4001ZM5.4001 7.39995C5.0676 7.39995 4.8001 7.66745 4.8001 7.99995C4.8001 8.33245 5.0676 8.59995 5.4001 8.59995H13.8001C14.1326 8.59995 14.4001 8.33245 14.4001 7.99995C14.4001 7.66745 14.1326 7.39995 13.8001 7.39995H5.4001ZM5.4001 11.6C5.0676 11.6 4.8001 11.8675 4.8001 12.2C4.8001 12.5325 5.0676 12.8 5.4001 12.8H13.8001C14.1326 12.8 14.4001 12.5325 14.4001 12.2C14.4001 11.8675 14.1326 11.6 13.8001 11.6H5.4001ZM3.2001 7.99995C3.2001 7.78778 3.11581 7.5843 2.96578 7.43427C2.81575 7.28424 2.61227 7.19995 2.4001 7.19995C2.18792 7.19995 1.98444 7.28424 1.83441 7.43427C1.68438 7.5843 1.6001 7.78778 1.6001 7.99995C1.6001 8.21212 1.68438 8.41561 1.83441 8.56564C1.98444 8.71567 2.18792 8.79995 2.4001 8.79995C2.61227 8.79995 2.81575 8.71567 2.96578 8.56564C3.11581 8.41561 3.2001 8.21212 3.2001 7.99995ZM2.4001 11.2C2.18792 11.2 1.98444 11.2842 1.83441 11.4343C1.68438 11.5843 1.6001 11.7878 1.6001 12C1.6001 12.2121 1.68438 12.4156 1.83441 12.5656C1.98444 12.7157 2.18792 12.8 2.4001 12.8C2.61227 12.8 2.81575 12.7157 2.96578 12.5656C3.11581 12.4156 3.2001 12.2121 3.2001 12C3.2001 11.7878 3.11581 11.5843 2.96578 11.4343C2.81575 11.2842 2.61227 11.2 2.4001 11.2Z" fill="#032B4E"/>
</svg>
