<svg width="20" height="20" viewBox="0 0 20 20" fill="none" xmlns="http://www.w3.org/2000/svg">
<path d="M4 7.89375C4 4.6375 6.6875 2 10 2C13.3125 2 16 4.6375 16 7.89375C16 11.6219 12.2437 16.0906 10.675 17.7937C10.3062 18.1938 9.69062 18.1938 9.32187 17.7937C7.75312 16.0906 3.99687 11.6219 3.99687 7.89375H4ZM10 10C10.5304 10 11.0391 9.78929 11.4142 9.41421C11.7893 9.03914 12 8.53043 12 8C12 7.46957 11.7893 6.96086 11.4142 6.58579C11.0391 6.21071 10.5304 6 10 6C9.46956 6 8.96086 6.21071 8.58578 6.58579C8.21071 6.96086 8 7.46957 8 8C8 8.53043 8.21071 9.03914 8.58578 9.41421C8.96086 9.78929 9.46956 10 10 10Z" fill="#032B4E"/>
</svg>
