<svg width="20" height="20" viewBox="0 0 20 20" fill="none" xmlns="http://www.w3.org/2000/svg">
<path d="M14.5 8C14.5 5.51562 12.4844 3.5 10 3.5C7.51562 3.5 5.5 5.51562 5.5 8C5.5 8.3875 5.64062 8.9875 5.97812 9.7875C6.30625 10.5625 6.77188 11.4187 7.30625 12.2844C8.19688 13.7281 9.22813 15.1219 10 16.1156C10.775 15.1219 11.8063 13.7281 12.6938 12.2844C13.2281 11.4187 13.6938 10.5625 14.0219 9.7875C14.3594 8.9875 14.5 8.3875 14.5 8ZM16 8C16 10.7312 12.3438 15.5938 10.7406 17.6C10.3562 18.0781 9.64375 18.0781 9.25938 17.6C7.65625 15.5938 4 10.7312 4 8C4 4.6875 6.6875 2 10 2C13.3125 2 16 4.6875 16 8ZM11 8C11 7.73478 10.8946 7.48043 10.7071 7.29289C10.5196 7.10536 10.2652 7 10 7C9.73478 7 9.48043 7.10536 9.29289 7.29289C9.10536 7.48043 9 7.73478 9 8C9 8.26522 9.10536 8.51957 9.29289 8.70711C9.48043 8.89464 9.73478 9 10 9C10.2652 9 10.5196 8.89464 10.7071 8.70711C10.8946 8.51957 11 8.26522 11 8ZM7.5 8C7.5 7.33696 7.76339 6.70107 8.23223 6.23223C8.70107 5.76339 9.33696 5.5 10 5.5C10.663 5.5 11.2989 5.76339 11.7678 6.23223C12.2366 6.70107 12.5 7.33696 12.5 8C12.5 8.66304 12.2366 9.29893 11.7678 9.76777C11.2989 10.2366 10.663 10.5 10 10.5C9.33696 10.5 8.70107 10.2366 8.23223 9.76777C7.76339 9.29893 7.5 8.66304 7.5 8Z" fill="#032B4E"/>
</svg>
