<svg width="72" height="72" viewBox="0 0 72 72" fill="none" xmlns="http://www.w3.org/2000/svg">
<path d="M3.40625 0.58125C2.63125 -0.19375 1.35625 -0.19375 0.58125 0.58125C-0.19375 1.35625 -0.19375 2.63125 0.58125 3.40625L68.5813 71.4062C69.3563 72.1813 70.6312 72.1813 71.4062 71.4062C72.1813 70.6312 72.1813 69.3562 71.4062 68.5812L52.2812 49.4562C56.5563 42.5062 59.9938 34.6938 59.9938 27.5563C59.9938 14.5313 49.2438 3.98125 35.9938 3.98125C27.9938 3.98125 20.9188 7.81875 16.5562 13.7312L3.40625 0.58125ZM19.4187 16.5938C23.0062 11.4062 29.0688 7.98125 35.9938 7.98125C47.1063 7.98125 55.9938 16.8063 55.9938 27.5563C55.9938 33.3313 53.2563 40.0438 49.3688 46.5438L39.9813 37.1562C43.5187 35.6188 45.9938 32.0938 45.9938 27.9813C45.9938 22.4563 41.5188 17.9813 35.9938 17.9813C31.8938 17.9813 28.3563 20.4563 26.8188 23.9938L19.4187 16.5938ZM36.7563 33.9313L30.0312 27.2063C30.4062 24.2563 32.9313 21.9688 35.9813 21.9688C39.2938 21.9688 41.9813 24.6562 41.9813 27.9688C41.9813 31.0187 39.7063 33.5438 36.7438 33.9188L36.7563 33.9313ZM11.9937 27.5563C11.9937 42.4688 27.0188 60.3438 33.2938 67.1562C34.7687 68.7562 37.2313 68.7562 38.7063 67.1562C40.6938 65.0062 43.5438 61.7438 46.5312 57.8188L43.6813 54.9688C40.8063 58.7938 38.0063 62.0062 36.0063 64.1937C32.9313 60.8312 27.9312 54.9813 23.6812 48.2687C19.2437 41.2437 16.0063 33.8563 16.0063 27.5688C16.0063 27.4813 16.0063 27.3938 16.0063 27.3188L12.3312 23.6313C12.1187 24.9062 11.9937 26.2188 11.9937 27.5563Z" fill="#EBCA28"/>
</svg>
