<svg width="80" height="80" viewBox="0 0 80 80" fill="none" xmlns="http://www.w3.org/2000/svg">
<path d="M72.0002 14.0006C72.0002 12.9631 71.4627 12.0006 70.5877 11.4506C69.7127 10.9006 68.6002 10.8506 67.6752 11.3131L52.0627 19.0131L30.5002 11.6756C28.7877 11.0881 26.9127 11.2006 25.2627 11.9631L9.72515 19.2881C8.67515 19.7756 8.00015 20.8381 8.00015 22.0006V66.0006C8.00015 67.0256 8.52515 67.9881 9.38765 68.5381C10.2502 69.0881 11.3377 69.1506 12.2752 68.7131L28.1877 61.2256L49.5252 68.3381C51.2377 68.9131 53.0877 68.8006 54.7252 68.0256L70.2752 60.7131C71.3252 60.2131 72.0002 59.1631 72.0002 58.0006V14.0006ZM26.0002 18.2631V55.6381L14.0002 61.2881V23.9131L26.0002 18.2631ZM32.0002 56.1756V18.5381L48.0002 23.9756V61.5131L32.0002 56.1756ZM54.0002 24.7506L66.0002 18.8256V56.1006L54.0002 61.7506V24.7506Z" fill="#EBCA28"/>
</svg>
