<svg width="72" height="68" viewBox="0 0 72 68" fill="none" xmlns="http://www.w3.org/2000/svg">
<path d="M34 32C37.713 32 41.274 30.525 43.8995 27.8995C46.525 25.274 48 21.713 48 18C48 14.287 46.525 10.726 43.8995 8.1005C41.274 5.475 37.713 4 34 4C30.287 4 26.726 5.475 24.1005 8.1005C21.475 10.726 20 14.287 20 18C20 21.713 21.475 25.274 24.1005 27.8995C26.726 30.525 30.287 32 34 32ZM34 0C38.7739 0 43.3523 1.89642 46.7279 5.27208C50.1036 8.64773 52 13.2261 52 18C52 22.7739 50.1036 27.3523 46.7279 30.7279C43.3523 34.1036 38.7739 36 34 36C29.2261 36 24.6477 34.1036 21.2721 30.7279C17.8964 27.3523 16 22.7739 16 18C16 13.2261 17.8964 8.64773 21.2721 5.27208C24.6477 1.89642 29.2261 0 34 0ZM32 8C32 6.9 32.9 6 34 6C35.1 6 36 6.9 36 8V9H38C39.1 9 40 9.9 40 11C40 12.1 39.1 13 38 13H32.275C31.575 13 31 13.575 31 14.275C31 14.8875 31.4375 15.4125 32.0375 15.525L37.6625 16.55C40.1625 17 41.9875 19.1875 41.9875 21.7375C41.9875 24.65 39.625 27.0125 36.7125 27.0125H35.9875V28.0125C35.9875 29.1125 35.0875 30.0125 33.9875 30.0125C32.8875 30.0125 31.9875 29.1125 31.9875 28.0125V27.0125H29.9875C28.8875 27.0125 27.9875 26.1125 27.9875 25.0125C27.9875 23.9125 28.8875 23.0125 29.9875 23.0125H36.7125C37.4125 23.0125 37.9875 22.4375 37.9875 21.7375C37.9875 21.125 37.55 20.6 36.95 20.4875L31.325 19.4625C28.825 19.0125 27 16.825 27 14.275C27 11.45 29.2125 9.15 32 9.0125V8ZM18.875 43.675C20.5125 42.575 22.45 42 24.425 42H43C46.8625 42 50 45.1375 50 49C50 50.075 49.7625 51.0875 49.325 52H50.025L61.8625 44.95C62.9 44.3375 64.0875 44 65.3 44H65.4625C69.075 44 72 46.925 72 50.5375C72 52.75 70.875 54.8125 69.025 56.0125L54.075 65.7375C51.8 67.2125 49.15 68 46.45 68H2C0.9 68 0 67.1 0 66C0 64.9 0.9 64 2 64H46.4375C48.375 64 50.2625 63.4375 51.8875 62.3875L66.8375 52.6625C67.5625 52.2 67.9875 51.3875 67.9875 50.5375C67.9875 49.1375 66.85 48 65.45 48H65.2875C64.8 48 64.325 48.1375 63.9 48.375L51.5875 55.7125C51.275 55.9 50.925 56 50.5625 56H32C30.9 56 30 55.1 30 54C30 52.9 30.9 52 32 52H43C44.6625 52 46 50.6625 46 49C46 47.3375 44.6625 46 43 46H24.425C23.2375 46 22.0875 46.35 21.1 47.0125L11.1125 53.6625C10.7875 53.8875 10.4 54 10 54H2C0.9 54 0 53.1 0 52C0 50.9 0.9 50 2 50H9.4L18.875 43.675Z" fill="#EBCA28"/>
</svg>
