<svg width="20" height="20" viewBox="0 0 20 20" fill="none" xmlns="http://www.w3.org/2000/svg">
<path d="M16.7688 10.5437C16.9156 10.4031 17 10.2062 17 9.99996C17 9.79371 16.9156 9.59996 16.7688 9.45621L11.2688 4.20621C10.9688 3.91871 10.4938 3.93121 10.2094 4.23121C9.925 4.53121 9.93437 5.00621 10.2344 5.29058L14.3781 9.24996H3.75C3.33437 9.24996 3 9.58433 3 9.99996C3 10.4156 3.33437 10.75 3.75 10.75H14.3781L10.2312 14.7062C9.93125 14.9937 9.92188 15.4656 10.2063 15.7656C10.4906 16.0656 10.9656 16.075 11.2656 15.7906L16.7656 10.5406L16.7688 10.5437Z" fill="#006627"/>
</svg>
