<svg width="80" height="80" viewBox="0 0 80 80" fill="none" xmlns="http://www.w3.org/2000/svg">
<g clip-path="url(#clip0_7017_27917)">
<path d="M18 28C20.6522 28 23.1957 26.9464 25.0711 25.0711C26.9464 23.1957 28 20.6522 28 18C28 15.3478 26.9464 12.8043 25.0711 10.9289C23.1957 9.05357 20.6522 8 18 8C15.3478 8 12.8043 9.05357 10.9289 10.9289C9.05357 12.8043 8 15.3478 8 18C8 20.6522 9.05357 23.1957 10.9289 25.0711C12.8043 26.9464 15.3478 28 18 28ZM64 28C66.6522 28 69.1957 26.9464 71.0711 25.0711C72.9464 23.1957 74 20.6522 74 18C74 15.3478 72.9464 12.8043 71.0711 10.9289C69.1957 9.05357 66.6522 8 64 8C61.3478 8 58.8043 9.05357 56.9289 10.9289C55.0536 12.8043 54 15.3478 54 18C54 20.6522 55.0536 23.1957 56.9289 25.0711C58.8043 26.9464 61.3478 28 64 28ZM0 45.3375C0 46.8 1.2 48 2.6625 48H29.325C29.35 48 29.375 48 29.4125 48C26.0875 45.0625 24 40.775 24 36C24 35.05 24.0875 34.125 24.2375 33.2125C22.5375 32.425 20.65 32 18.6625 32H13.325C5.975 32 0 37.975 0 45.3375ZM50.6625 48H77.325C78.8 48 79.9875 46.8 79.9875 45.3375C80 37.975 74.025 32 66.6625 32H61.325C59.3375 32 57.45 32.4375 55.75 33.2125C55.9125 34.1125 55.9875 35.05 55.9875 36C55.9875 40.775 53.8875 45.0625 50.575 48C50.6 48 50.625 48 50.6625 48ZM40 30C40.7879 30 41.5681 30.1552 42.2961 30.4567C43.024 30.7582 43.6855 31.2002 44.2426 31.7574C44.7998 32.3145 45.2417 32.9759 45.5433 33.7039C45.8448 34.4319 46 35.2121 46 36C46 36.7879 45.8448 37.5681 45.5433 38.2961C45.2417 39.024 44.7998 39.6855 44.2426 40.2426C43.6855 40.7998 43.024 41.2417 42.2961 41.5433C41.5681 41.8448 40.7879 42 40 42C39.2121 42 38.4318 41.8448 37.7039 41.5433C36.9759 41.2417 36.3145 40.7998 35.7574 40.2426C35.2002 39.6855 34.7582 39.024 34.4567 38.2961C34.1552 37.5681 34 36.7879 34 36C34 35.2121 34.1552 34.4319 34.4567 33.7039C34.7582 32.9759 35.2002 32.3145 35.7574 31.7574C36.3145 31.2002 36.9759 30.7582 37.7039 30.4567C38.4318 30.1552 39.2121 30 40 30ZM40 48C41.5759 48 43.1363 47.6896 44.5922 47.0866C46.0481 46.4835 47.371 45.5996 48.4853 44.4853C49.5996 43.371 50.4835 42.0481 51.0865 40.5922C51.6896 39.1363 52 37.5759 52 36C52 34.4241 51.6896 32.8637 51.0865 31.4078C50.4835 29.9519 49.5996 28.629 48.4853 27.5147C47.371 26.4004 46.0481 25.5165 44.5922 24.9134C43.1363 24.3104 41.5759 24 40 24C38.4241 24 36.8637 24.3104 35.4078 24.9134C33.9519 25.5165 32.629 26.4004 31.5147 27.5147C30.4004 28.629 29.5165 29.9519 28.9134 31.4078C28.3104 32.8637 28 34.4241 28 36C28 37.5759 28.3104 39.1363 28.9134 40.5922C29.5165 42.0481 30.4004 43.371 31.5147 44.4853C32.629 45.5996 33.9519 46.4835 35.4078 47.0866C36.8637 47.6896 38.4241 48 40 48ZM32.6625 58H47.325C52.3 58 56.475 61.4 57.65 66H22.325C23.5125 61.4 27.6875 58 32.65 58H32.6625ZM32.6625 52C23.4625 52 16 59.4625 16 68.6625C16 70.5 17.4875 72 19.3375 72H60.675C62.5125 72 64.0125 70.5125 64.0125 68.6625C64 59.4625 56.5375 52 47.3375 52H32.675H32.6625Z" fill="#006627"/>
</g>
<defs>
<clipPath id="clip0_7017_27917">
<rect width="80" height="80" fill="white"/>
</clipPath>
</defs>
</svg>
