<svg width="20" height="20" viewBox="0 0 20 20" fill="none" xmlns="http://www.w3.org/2000/svg">
<path d="M13.7437 10.5996C13.2312 10.3809 12.6375 10.5246 12.2844 10.9559L11.2469 12.2246C9.80937 11.3903 8.60938 10.1903 7.775 8.75277L9.04063 7.7184C9.47188 7.36527 9.61875 6.77152 9.39687 6.25902L7.89687 2.75902C7.6625 2.20902 7.07188 1.90277 6.4875 2.02777L2.9875 2.77777C2.4125 2.89965 2 3.40902 2 3.99965C2 11.2246 7.475 17.1746 14.5031 17.9215C14.8094 17.9528 15.1156 17.9778 15.4281 17.9903H15.4312C15.6219 17.9965 15.8094 18.0028 16 18.0028C16.5906 18.0028 17.1 17.5903 17.2219 17.0153L17.9719 13.5153C18.0969 12.9309 17.7906 12.3403 17.2406 12.1059L13.7406 10.6059L13.7437 10.5996ZM15.7969 16.4996C9.05625 16.3903 3.60938 10.9434 3.50312 4.20277L6.60313 3.53715L7.94688 6.67465L6.825 7.5934C6.25625 8.05902 6.10938 8.8684 6.47813 9.5059C7.44375 11.1715 8.83125 12.559 10.4969 13.5246C11.1344 13.8934 11.9438 13.7465 12.4094 13.1778L13.3281 12.0559L16.4656 13.3996L15.7969 16.4996Z" fill="#202020"/>
</svg>
