<svg width="20" height="20" viewBox="0 0 20 20" fill="none" xmlns="http://www.w3.org/2000/svg">
<path d="M13.7437 10.6C13.2312 10.3813 12.6375 10.525 12.2844 10.9563L11.2469 12.225C9.80937 11.3906 8.60938 10.1906 7.775 8.75314L9.04063 7.71876C9.47188 7.36564 9.61875 6.77189 9.39687 6.25939L7.89687 2.75939C7.6625 2.20939 7.07188 1.90314 6.4875 2.02814L2.9875 2.77814C2.4125 2.90001 2 3.40939 2 4.00001C2 11.225 7.475 17.175 14.5031 17.9219C14.8094 17.9531 15.1156 17.9781 15.4281 17.9906H15.4312C15.6219 17.9969 15.8094 18.0031 16 18.0031C16.5906 18.0031 17.1 17.5906 17.2219 17.0156L17.9719 13.5156C18.0969 12.9313 17.7906 12.3406 17.2406 12.1063L13.7406 10.6063L13.7437 10.6ZM15.7969 16.5C9.05625 16.3906 3.60938 10.9438 3.50312 4.20314L6.60313 3.53751L7.94688 6.67501L6.825 7.59376C6.25625 8.05939 6.10938 8.86876 6.47813 9.50626C7.44375 11.1719 8.83125 12.5594 10.4969 13.525C11.1344 13.8938 11.9438 13.7469 12.4094 13.1781L13.3281 12.0563L16.4656 13.4L15.7969 16.5Z" fill="white"/>
</svg>
