<svg width="20" height="20" viewBox="0 0 20 20" fill="none" xmlns="http://www.w3.org/2000/svg">
<path d="M13.7437 10.6001C13.2312 10.3814 12.6375 10.5251 12.2844 10.9564L11.2469 12.2251C9.80937 11.3908 8.60937 10.1908 7.775 8.75326L9.04062 7.71889C9.47187 7.36576 9.61875 6.77201 9.39687 6.25951L7.89687 2.75951C7.6625 2.20951 7.07188 1.90326 6.4875 2.02826L2.9875 2.77826C2.4125 2.90014 2 3.40951 2 4.00014C2 11.2251 7.475 17.1751 14.5031 17.922C14.8094 17.9533 15.1156 17.9783 15.4281 17.9908H15.4312C15.6219 17.997 15.8094 18.0033 16 18.0033C16.5906 18.0033 17.1 17.5908 17.2219 17.0158L17.9719 13.5158C18.0969 12.9314 17.7906 12.3408 17.2406 12.1064L13.7406 10.6064L13.7437 10.6001ZM15.7969 16.5001C9.05625 16.3908 3.60937 10.9439 3.50312 4.20326L6.60312 3.53764L7.94687 6.67514L6.825 7.59389C6.25625 8.05951 6.10938 8.86889 6.47812 9.50639C7.44375 11.172 8.83125 12.5595 10.4969 13.5251C11.1344 13.8939 11.9437 13.747 12.4094 13.1783L13.3281 12.0564L16.4656 13.4001L15.7969 16.5001Z" fill="white"/>
</svg>
