<svg width="24" height="24" viewBox="0 0 24 24" fill="none" xmlns="http://www.w3.org/2000/svg">
<path d="M12.8992 5.1002C12.8992 4.60145 12.498 4.2002 11.9992 4.2002C11.5005 4.2002 11.0992 4.60145 11.0992 5.1002V11.1002H5.09922C4.60047 11.1002 4.19922 11.5014 4.19922 12.0002C4.19922 12.4989 4.60047 12.9002 5.09922 12.9002H11.0992V18.9002C11.0992 19.3989 11.5005 19.8002 11.9992 19.8002C12.498 19.8002 12.8992 19.3989 12.8992 18.9002V12.9002H18.8992C19.398 12.9002 19.7992 12.4989 19.7992 12.0002C19.7992 11.5014 19.398 11.1002 18.8992 11.1002H12.8992V5.1002Z" fill="#202020"/>
</svg>
