<svg width="40" height="40" viewBox="0 0 40 40" fill="none" xmlns="http://www.w3.org/2000/svg">
<rect width="40" height="40" rx="20" fill="#EBCA28"/>
<path d="M26.075 17.4162C25.07 15.0537 22.7263 13.4 20 13.4C18.5113 13.4 17.0825 13.9925 16.0288 15.0462L14.0713 17H16.1C16.5988 17 17 17.4012 17 17.9C17 18.3987 16.5988 18.8 16.1 18.8H11.9C11.4013 18.8 11 18.3987 11 17.9V13.7C11 13.2012 11.4013 12.8 11.9 12.8C12.3988 12.8 12.8 13.2012 12.8 13.7V15.7287L14.7538 13.775C16.145 12.38 18.0313 11.6 20 11.6C23.4725 11.6 26.4538 13.7075 27.7325 16.7112C27.9275 17.1687 27.7138 17.6975 27.2563 17.8925C26.7988 18.0875 26.27 17.8737 26.075 17.4162ZM12.275 23.3037C12.08 22.8462 12.29 22.3175 12.7475 22.1225C13.205 21.9275 13.7338 22.1375 13.9288 22.595C14.9375 24.9537 17.2775 26.6 20 26.6C21.4888 26.6 22.9175 26.0075 23.9713 24.9537L25.9288 23H23.9C23.4013 23 23 22.5987 23 22.1C23 21.6012 23.4013 21.2 23.9 21.2H28.1C28.5988 21.2 29 21.6012 29 22.1V26.3C29 26.7987 28.5988 27.2 28.1 27.2C27.6013 27.2 27.2 26.7987 27.2 26.3V24.2712L25.2463 26.225C23.855 27.62 21.9688 28.4 20 28.4C16.5312 28.4 13.5575 26.3 12.275 23.3037Z" fill="#202020"/>
</svg>
