<svg width="24" height="24" viewBox="0 0 24 24" fill="none" xmlns="http://www.w3.org/2000/svg">
<path d="M13.8004 3.29999C13.8004 3.79874 14.2016 4.19999 14.7004 4.19999H18.5291L10.1629 12.5625C9.81039 12.915 9.81039 13.485 10.1629 13.8337C10.5154 14.1825 11.0854 14.1862 11.4341 13.8337L19.7966 5.47124L19.8004 9.29999C19.8004 9.79874 20.2016 10.2 20.7004 10.2C21.1991 10.2 21.6004 9.79874 21.6004 9.29999V3.29999C21.6004 2.80124 21.1991 2.39999 20.7004 2.39999H14.7004C14.2016 2.39999 13.8004 2.80124 13.8004 3.29999ZM5.10039 3.59999C3.60789 3.59999 2.40039 4.80749 2.40039 6.29999V18.9C2.40039 20.3925 3.60789 21.6 5.10039 21.6H17.7004C19.1929 21.6 20.4004 20.3925 20.4004 18.9V14.1C20.4004 13.6012 19.9991 13.2 19.5004 13.2C19.0016 13.2 18.6004 13.6012 18.6004 14.1V18.9C18.6004 19.3987 18.1991 19.8 17.7004 19.8H5.10039C4.60164 19.8 4.20039 19.3987 4.20039 18.9V6.29999C4.20039 5.80124 4.60164 5.39999 5.10039 5.39999H9.90039C10.3991 5.39999 10.8004 4.99874 10.8004 4.49999C10.8004 4.00124 10.3991 3.59999 9.90039 3.59999H5.10039Z" fill="#202020"/>
</svg>
