<svg width="20" height="20" viewBox="0 0 20 20" fill="none" xmlns="http://www.w3.org/2000/svg">
<path d="M13.5 8.5C13.5 7.17392 12.9732 5.90215 12.0355 4.96447C11.0979 4.02678 9.82608 3.5 8.5 3.5C7.17392 3.5 5.90215 4.02678 4.96447 4.96447C4.02678 5.90215 3.5 7.17392 3.5 8.5C3.5 9.82608 4.02678 11.0979 4.96447 12.0355C5.90215 12.9732 7.17392 13.5 8.5 13.5C9.82608 13.5 11.0979 12.9732 12.0355 12.0355C12.9732 11.0979 13.5 9.82608 13.5 8.5ZM12.5344 13.5969C11.4281 14.475 10.025 15 8.5 15C4.90937 15 2 12.0906 2 8.5C2 4.90937 4.90937 2 8.5 2C12.0906 2 15 4.90937 15 8.5C15 10.025 14.475 11.4281 13.5969 12.5344L17.7812 16.7188C18.075 17.0125 18.075 17.4875 17.7812 17.7781C17.4875 18.0688 17.0125 18.0719 16.7219 17.7781L12.5344 13.5969Z" fill="white"/>
</svg>
