<svg width="36" height="36" viewBox="0 0 36 36" fill="none" xmlns="http://www.w3.org/2000/svg">
<path d="M0 4.05C0 3.30188 0.601875 2.7 1.35 2.7H3.89813C5.4225 2.7 6.7275 3.79125 6.9975 5.2875L7.02 5.4H29.5144C30.9263 5.4 31.9894 6.68813 31.725 8.0775L30.24 15.7838C29.79 18.1125 27.7537 19.8 25.38 19.8H9.64125L9.92812 21.3919C10.0462 22.0331 10.6031 22.5 11.2556 22.5H25.65C26.3981 22.5 27 23.1019 27 23.85C27 24.5981 26.3981 25.2 25.65 25.2H11.2556C9.29813 25.2 7.62187 23.7994 7.27313 21.8756L4.3425 5.77125C4.30312 5.5575 4.1175 5.4 3.89813 5.4H1.35C0.601875 5.4 0 4.79813 0 4.05ZM9.14625 17.1H25.38C26.46 17.1 27.3881 16.335 27.5906 15.2775L28.9631 8.1H7.50937L9.14625 17.1ZM11.7 27C12.4161 27 13.1028 27.2845 13.6092 27.7908C14.1155 28.2972 14.4 28.9839 14.4 29.7C14.4 30.4161 14.1155 31.1028 13.6092 31.6092C13.1028 32.1155 12.4161 32.4 11.7 32.4C10.9839 32.4 10.2972 32.1155 9.79081 31.6092C9.28446 31.1028 9 30.4161 9 29.7C9 28.9839 9.28446 28.2972 9.79081 27.7908C10.2972 27.2845 10.9839 27 11.7 27ZM24.3 27C25.0161 27 25.7028 27.2845 26.2092 27.7908C26.7155 28.2972 27 28.9839 27 29.7C27 30.4161 26.7155 31.1028 26.2092 31.6092C25.7028 32.1155 25.0161 32.4 24.3 32.4C23.5839 32.4 22.8972 32.1155 22.3908 31.6092C21.8845 31.1028 21.6 30.4161 21.6 29.7C21.6 28.9839 21.8845 28.2972 22.3908 27.7908C22.8972 27.2845 23.5839 27 24.3 27Z" fill="#202020"/>
</svg>
