<svg width="23" height="15" viewBox="0 0 23 15" fill="none" xmlns="http://www.w3.org/2000/svg">
<path d="M1.26522 0.997358C1.27411 0.995003 1.28283 0.991874 1.29166 0.989167C2.02161 0.766276 2.77483 0.609831 3.52506 0.474199C5.19368 0.172488 6.88997 0.0167101 8.58538 0.0012414C10.8711 -0.0195711 13.1622 0.220827 15.3848 0.759139C16.6512 1.06584 17.8942 1.46933 19.0968 1.97115C19.6594 2.20589 20.2226 2.44267 20.7627 2.72627C21.2337 2.9736 21.704 3.21772 22.0195 3.66171C22.3687 4.15334 22.3207 4.72023 21.9686 5.19927C21.234 6.1989 20.4076 5.82234 19.4911 5.3792C17.7674 4.54575 15.8071 3.92144 13.9336 3.52752C11.8221 3.08367 9.65646 2.89692 7.50043 2.98502C5.65167 3.06054 3.81236 3.33905 2.02365 3.81225C2.02365 3.81225 0.385857 4.22892 0.0428722 2.76171C-0.273323 1.40914 1.26315 0.997921 1.26522 0.997358Z" fill="white"/>
<path d="M2.09948 6.41111C2.10715 6.40908 2.11463 6.40637 2.12223 6.40408C2.74977 6.21245 3.39735 6.07797 4.04229 5.96133C5.47684 5.70198 6.93512 5.568 8.3927 5.55478C10.3577 5.53688 12.3274 5.74353 14.2383 6.20633C15.327 6.47 16.3956 6.81685 17.4295 7.24829C17.9131 7.45009 18.3973 7.65364 18.8616 7.89749C19.2665 8.11007 19.6709 8.32003 19.9421 8.70168C20.2423 9.12433 20.201 9.61171 19.8984 10.0236C19.2667 10.8829 18.5563 10.5592 17.7684 10.1782C16.2865 9.46169 14.6012 8.925 12.9905 8.58637C11.1754 8.20479 9.31347 8.04423 7.45993 8.11995C5.87052 8.18489 4.28926 8.4243 2.75145 8.83113C2.75145 8.83113 1.34345 9.1893 1.04856 7.92797C0.776798 6.76514 2.09772 6.41161 2.09948 6.41111Z" fill="white"/>
<path d="M2.68658 11.447C2.69316 11.4453 2.69952 11.443 2.70602 11.441C3.24191 11.2773 3.79481 11.1625 4.34561 11.0629C5.57056 10.8414 6.81583 10.727 8.06046 10.7158C9.7384 10.7004 11.4204 10.877 13.0521 11.2721C13.9817 11.4973 14.8942 11.7935 15.7771 12.1619C16.1901 12.3342 16.6035 12.5081 17 12.7163C17.3458 12.8978 17.6911 13.0771 17.9227 13.403C18.179 13.7639 18.1438 14.1801 17.8853 14.5317C17.346 15.2656 16.7393 14.9891 16.0665 14.6638C14.8011 14.052 13.362 13.5937 11.9866 13.3045C10.4366 12.9786 8.8467 12.8416 7.26396 12.9062C5.90675 12.9616 4.55647 13.1661 3.24339 13.5135C3.24339 13.5135 2.04101 13.8193 1.78929 12.7422C1.55715 11.7493 2.68507 11.4474 2.68658 11.447Z" fill="white"/>
</svg>
