<svg width="23" height="15" viewBox="0 0 23 15" fill="none" xmlns="http://www.w3.org/2000/svg">
<path d="M1.26522 0.997358C1.27411 0.995003 1.28283 0.991874 1.29166 0.989167C2.02161 0.766276 2.77483 0.609831 3.52506 0.474199C5.19368 0.172488 6.88997 0.0167101 8.58538 0.0012414C10.8711 -0.0195711 13.1622 0.220827 15.3848 0.759139C16.6512 1.06584 17.8942 1.46933 19.0968 1.97115C19.6594 2.20589 20.2226 2.44267 20.7627 2.72627C21.2337 2.9736 21.704 3.21772 22.0195 3.66171C22.3687 4.15334 22.3207 4.72023 21.9686 5.19927C21.234 6.1989 20.4076 5.82234 19.4911 5.3792C17.7674 4.54575 15.8071 3.92144 13.9336 3.52752C11.8221 3.08367 9.65646 2.89692 7.50043 2.98502C5.65167 3.06054 3.81236 3.33905 2.02365 3.81225C2.02365 3.81225 0.385857 4.22892 0.0428722 2.76171C-0.273323 1.40914 1.26315 0.997921 1.26522 0.997358Z" fill="#032B4E"/>
<path d="M2.09948 6.41142C2.10715 6.40938 2.11463 6.40668 2.12223 6.40439C2.74977 6.21275 3.39735 6.07828 4.04229 5.96163C5.47684 5.70228 6.93512 5.5683 8.3927 5.55509C10.3577 5.53719 12.3274 5.74384 14.2383 6.20664C15.327 6.47031 16.3956 6.81716 17.4295 7.2486C17.9131 7.45039 18.3973 7.65395 18.8616 7.89779C19.2665 8.11038 19.6709 8.32034 19.9421 8.70199C20.2423 9.12464 20.201 9.61201 19.8984 10.0239C19.2667 10.8832 18.5563 10.5595 17.7684 10.1785C16.2865 9.462 14.6012 8.92531 12.9905 8.58668C11.1754 8.20509 9.31347 8.04453 7.45993 8.12026C5.87052 8.18519 4.28926 8.42461 2.75145 8.83144C2.75145 8.83144 1.34345 9.18961 1.04856 7.92827C0.776798 6.76544 2.09772 6.41191 2.09948 6.41142Z" fill="#032B4E"/>
<path d="M2.68658 11.4465C2.69316 11.4448 2.69952 11.4425 2.70602 11.4405C3.24191 11.2769 3.79481 11.162 4.34561 11.0625C5.57056 10.841 6.81583 10.7266 8.06046 10.7153C9.7384 10.7 11.4204 10.8765 13.0521 11.2716C13.9817 11.4968 14.8942 11.793 15.7771 12.1614C16.1901 12.3337 16.6035 12.5076 17 12.7158C17.3458 12.8973 17.6911 13.0766 17.9227 13.4025C18.179 13.7634 18.1438 14.1796 17.8853 14.5312C17.346 15.2651 16.7393 14.9887 16.0665 14.6633C14.8011 14.0515 13.362 13.5932 11.9866 13.304C10.4366 12.9781 8.8467 12.8411 7.26396 12.9057C5.90675 12.9611 4.55647 13.1656 3.24339 13.513C3.24339 13.513 2.04101 13.8188 1.78929 12.7418C1.55715 11.7488 2.68507 11.4469 2.68658 11.4465Z" fill="#032B4E"/>
</svg>
