<svg width="40" height="40" viewBox="0 0 40 40" fill="none" xmlns="http://www.w3.org/2000/svg">
<path d="M20.0063 2C19.4438 2 18.925 2.31875 18.6688 2.81875L14.0688 11.8313L4.07501 13.4187C3.51876 13.5062 3.05626 13.9 2.88126 14.4375C2.70626 14.975 2.85001 15.5625 3.24376 15.9625L10.3938 23.1187L8.81876 33.1125C8.73126 33.6687 8.96251 34.2313 9.41876 34.5625C9.87501 34.8937 10.475 34.9437 10.9813 34.6875L20.0063 30.1L29.025 34.6875C29.525 34.9437 30.1313 34.8937 30.5875 34.5625C31.0438 34.2313 31.275 33.675 31.1875 33.1125L29.6063 23.1187L36.7563 15.9625C37.1563 15.5625 37.2938 14.975 37.1188 14.4375C36.9438 13.9 36.4875 13.5062 35.925 13.4187L25.9375 11.8313L21.3438 2.81875C21.0875 2.31875 20.5688 2 20.0063 2ZM25.05 12.2875C25.1938 12.575 25.4688 12.7688 25.7813 12.8188L35.775 14.4062C35.9625 14.4375 36.1125 14.5687 36.175 14.7437C36.2375 14.9187 36.1875 15.1187 36.0563 15.25L28.9 22.4125C28.675 22.6375 28.5688 22.9562 28.6188 23.275L30.1938 33.2687C30.225 33.4562 30.1438 33.6437 29.9938 33.75C29.8438 33.8563 29.6375 33.875 29.475 33.7938L20.4563 29.2062C20.1688 29.0625 19.8375 29.0625 19.55 29.2062L10.5313 33.7938C10.3625 33.8813 10.1625 33.8625 10.0125 33.75C9.86251 33.6375 9.78126 33.4562 9.81251 33.2687L11.3875 23.275C11.4375 22.9562 11.3313 22.6375 11.1063 22.4125L3.95626 15.2563C3.82501 15.125 3.77501 14.925 3.83751 14.75C3.90001 14.575 4.05001 14.4375 4.23751 14.4125L14.2313 12.825C14.55 12.775 14.8188 12.575 14.9625 12.2937L19.5625 3.275C19.65 3.10625 19.8188 3 20.0063 3C20.1938 3 20.3688 3.10625 20.45 3.275L25.05 12.2875Z" fill="#F5D109"/>
</svg>
