<svg width="80" height="80" viewBox="0 0 80 80" fill="none" xmlns="http://www.w3.org/2000/svg">
<path d="M35.0251 16.0495C40.0626 16.562 44.0001 20.8245 44.0001 25.9995V53.9995L43.9751 54.612C43.7376 56.9495 42.1501 58.887 40.0001 59.6495V64.9995C40.0001 66.662 38.6626 67.9995 37.0001 67.9995C35.3376 67.9995 34.0001 66.662 34.0001 64.9995V59.9995H14.0001V64.9995C14.0001 66.662 12.6626 67.9995 11.0001 67.9995C9.33756 67.9995 8.00006 66.662 8.00006 64.9995V59.6495C5.85006 58.887 4.27506 56.9495 4.02506 54.612L4.00006 53.9995V25.9995C4.00006 20.8245 7.93756 16.562 12.9751 16.0495L14.0001 15.9995H34.0001L35.0251 16.0495ZM64.0001 7.99945C71.7376 7.99945 78.0001 14.262 78.0001 21.9995C78.0001 28.6995 73.2876 34.2995 67.0001 35.6745V64.9995C67.0001 66.662 65.6626 67.9995 64.0001 67.9995C62.3376 67.9995 61.0001 66.662 61.0001 64.9995V35.6745C54.7126 34.2995 50.0001 28.6995 50.0001 21.9995C50.0001 14.262 56.2626 7.99945 64.0001 7.99945ZM10.0001 39.9995V53.9995H38.0001V39.9995H10.0001ZM17.0001 49.9995C16.2044 49.9995 15.4414 49.6834 14.8787 49.1208C14.3161 48.5582 14.0001 47.7951 14.0001 46.9995C14.0001 46.2038 14.3161 45.4407 14.8787 44.8781C15.4414 44.3155 16.2044 43.9995 17.0001 43.9995C17.7957 43.9995 18.5588 44.3155 19.1214 44.8781C19.684 45.4407 20.0001 46.2038 20.0001 46.9995C20.0001 47.7951 19.684 48.5582 19.1214 49.1208C18.5588 49.6834 17.7957 49.9995 17.0001 49.9995ZM31.0001 49.9995C30.2044 49.9995 29.4414 49.6834 28.8787 49.1208C28.3161 48.5582 28.0001 47.7951 28.0001 46.9995C28.0001 46.2038 28.3161 45.4407 28.8787 44.8781C29.4414 44.3155 30.2044 43.9995 31.0001 43.9995C31.7957 43.9995 32.5588 44.3155 33.1214 44.8781C33.684 45.4407 34.0001 46.2038 34.0001 46.9995C34.0001 47.7951 33.684 48.5582 33.1214 49.1208C32.5588 49.6834 31.7957 49.9995 31.0001 49.9995ZM14.0001 21.9995C11.7876 21.9995 10.0001 23.787 10.0001 25.9995V33.9995H38.0001V25.9995C38.0001 23.787 36.2126 21.9995 34.0001 21.9995H14.0001ZM64.0001 13.9995C61.8783 13.9995 59.8435 14.8423 58.3432 16.3426C56.8429 17.8429 56.0001 19.8777 56.0001 21.9995C56.0001 24.1212 56.8429 26.156 58.3432 27.6563C59.8435 29.1566 61.8783 29.9995 64.0001 29.9995C66.1218 29.9995 68.1566 29.1566 69.6569 27.6563C71.1572 26.156 72.0001 24.1212 72.0001 21.9995C72.0001 19.8777 71.1572 17.8429 69.6569 16.3426C68.1566 14.8423 66.1218 13.9995 64.0001 13.9995Z" fill="#EBCA28"/>
</svg>
