<svg width="16" height="16" viewBox="0 0 16 16" fill="none" xmlns="http://www.w3.org/2000/svg">
<path d="M3.95 6.27752C4.62 4.70252 6.1825 3.60002 8 3.60002C8.9925 3.60002 9.945 3.99502 10.6475 4.69752L11.9525 6.00002H10.6C10.2675 6.00002 10 6.26752 10 6.60002C10 6.93252 10.2675 7.20002 10.6 7.20002H13.4C13.7325 7.20002 14 6.93252 14 6.60002V3.80002C14 3.46752 13.7325 3.20002 13.4 3.20002C13.0675 3.20002 12.8 3.46752 12.8 3.80002V5.15252L11.4975 3.84752C10.57 2.92002 9.3125 2.40002 8 2.40002C5.685 2.40002 3.6975 3.80502 2.845 5.80752C2.715 6.11252 2.8575 6.46502 3.1625 6.59502C3.4675 6.72502 3.82 6.58252 3.95 6.27752ZM13.15 10.2025C13.28 9.89752 13.14 9.54502 12.835 9.41502C12.53 9.28502 12.1775 9.42502 12.0475 9.73002C11.375 11.3025 9.815 12.4 8 12.4C7.0075 12.4 6.055 12.005 5.3525 11.3025L4.0475 10H5.4C5.7325 10 6 9.73252 6 9.40002C6 9.06752 5.7325 8.80002 5.4 8.80002H2.6C2.2675 8.80002 2 9.06752 2 9.40002V12.2C2 12.5325 2.2675 12.8 2.6 12.8C2.9325 12.8 3.2 12.5325 3.2 12.2V10.8475L4.5025 12.15C5.43 13.08 6.6875 13.6 8 13.6C10.3125 13.6 12.295 12.2 13.15 10.2025Z" fill="#006627"/>
</svg>
