<svg width="40" height="40" viewBox="0 0 40 40" fill="none" xmlns="http://www.w3.org/2000/svg">
<path d="M16.1875 6.33744C17.2812 4.78744 19.4 4.28119 21.0875 5.23119L21.4125 5.43744C22.8625 6.46244 23.4 8.36869 22.6875 9.99369L22.5187 10.3374L20.4625 13.9999H30.5062L30.8625 14.0187C32.625 14.1999 34 15.6874 34 17.4999L33.9687 17.9499C33.8625 18.7499 33.4875 19.4624 32.9375 19.9999C33.5875 20.6374 34 21.5187 34 22.4999L33.9687 22.9562C33.85 23.8499 33.3937 24.6312 32.7375 25.1812C32.9062 25.5874 33 26.0312 33 26.4999L32.9875 26.7999C32.875 28.1062 32.05 29.1999 30.9 29.6999C30.9625 29.9562 31 30.2249 31 30.4999L30.9812 30.8562C30.8125 32.5062 29.5062 33.8124 27.8562 33.9812L27.5 33.9999H20.7687C19.8812 33.9999 18.9937 33.8499 18.1562 33.5624L18.1437 33.5562L17.8062 33.4312L17.7937 33.4249L16.025 32.7187C14.2687 32.0187 12.8687 30.7374 11.9937 29.1562V31.4999C11.9937 32.8812 10.875 33.9999 9.49374 33.9999H6.49374C5.11249 33.9999 3.99374 32.8812 3.99374 31.4999L3.99999 16.4999C3.99999 15.1187 5.11874 13.9999 6.49999 13.9999H9.49999L9.75624 14.0124C10.4187 14.0812 11.0062 14.4062 11.4125 14.8937C11.5062 14.6562 11.6125 14.4312 11.7375 14.2062L15.9812 6.66244L16.1875 6.33744ZM6.49999 14.9999C5.66874 14.9999 4.99999 15.6687 4.99999 16.4999V31.4999C4.99999 32.3249 5.66874 32.9999 6.49999 32.9999H9.49999C10.3312 32.9999 11 32.3249 11 31.4999V16.4999C11 15.7249 10.4125 15.0874 9.65624 15.0062L9.49999 14.9999H6.49999ZM20.6 6.10619C19.3562 5.40619 17.8062 5.77494 17.0062 6.91869L16.8562 7.15619L12.6125 14.6999C12.2687 15.3187 12.0625 16.0062 12.0125 16.7062L12 17.0437V25.2749L12.0187 25.8437C12.225 28.4812 13.9125 30.7999 16.4 31.7937L18.1687 32.4999L18.4875 32.6187L19.0437 32.7874C19.6062 32.9312 20.1875 33.0062 20.775 33.0062H27.5062L27.7625 32.9937C28.9375 32.8749 29.875 31.9374 29.9937 30.7624L30.0062 30.5062C30.0062 30.1812 29.9437 29.8687 29.825 29.5812C29.775 29.4499 29.7812 29.2999 29.8437 29.1749C29.9062 29.0499 30.025 28.9499 30.1625 28.9124C31.1625 28.6437 31.9062 27.7749 32 26.7187L32.0125 26.5062C32.0125 26.0624 31.8937 25.6437 31.6875 25.2749C31.5562 25.0437 31.6312 24.7499 31.8562 24.6062C32.4687 24.2187 32.8937 23.5749 32.9937 22.8312L33.0125 22.5062C33.0125 21.6374 32.5687 20.8687 31.8937 20.4187C31.7562 20.3249 31.6687 20.1687 31.6687 19.9999C31.6687 19.8312 31.75 19.6749 31.8937 19.5812C32.5687 19.1312 33.0125 18.3687 33.0125 17.4999L33 17.2437C32.8812 16.0687 31.9437 15.1312 30.7687 15.0124L30.5125 14.9999H19.6187C19.4437 14.9999 19.275 14.9062 19.1875 14.7499C19.1 14.5937 19.1 14.4062 19.1812 14.2562L21.6625 9.84994L21.7875 9.59994C22.3062 8.40619 21.9125 7.00619 20.85 6.25619L20.6125 6.10619H20.6Z" fill="#F5D109"/>
</svg>
