<svg width="32" height="32" viewBox="0 0 32 32" fill="none" xmlns="http://www.w3.org/2000/svg">
<path d="M13.6558 5.6H18.3408C18.4758 5.6 18.6008 5.665 18.6758 5.78L19.6258 7.2H12.3758L13.3258 5.78C13.4008 5.67 13.5258 5.6 13.6608 5.6H13.6558ZM22.5108 7.2L20.6758 4.445C20.1558 3.67 19.2808 3.2 18.3458 3.2H13.6558C12.7208 3.2 11.8458 3.67 11.3258 4.445L9.49078 7.2H8.80578H6.40078H6.00078C5.33578 7.2 4.80078 7.735 4.80078 8.4C4.80078 9.065 5.33578 9.6 6.00078 9.6H6.58078L7.78078 25.835C7.90578 27.505 9.29578 28.8 10.9708 28.8H21.0258C22.7008 28.8 24.0908 27.505 24.2158 25.835L25.4208 9.6H26.0008C26.6658 9.6 27.2008 9.065 27.2008 8.4C27.2008 7.735 26.6658 7.2 26.0008 7.2H25.6008H23.1958H22.5108ZM23.0158 9.6L21.8258 25.66C21.7958 26.08 21.4458 26.4 21.0258 26.4H10.9708C10.5508 26.4 10.2058 26.075 10.1708 25.66L8.98578 9.6H23.0158Z" fill="#D32F2F"/>
</svg>
