<svg width="32" height="32" viewBox="0 0 32 32" fill="none" xmlns="http://www.w3.org/2000/svg">
<path d="M15.62 7.41499C15.7 7.27999 15.845 7.19999 16 7.19999C16.155 7.19999 16.3 7.27999 16.38 7.41499L26.295 23.7C26.365 23.815 26.4 23.945 26.4 24.075C26.4 24.475 26.075 24.8 25.675 24.8H6.32495C5.92495 24.8 5.59995 24.475 5.59995 24.075C5.59995 23.94 5.63495 23.81 5.70495 23.7L15.62 7.41499ZM13.57 6.16499L3.65495 22.45C3.35495 22.94 3.19995 23.5 3.19995 24.075C3.19995 25.8 4.59995 27.2 6.32495 27.2H25.675C27.4 27.2 28.8 25.8 28.8 24.075C28.8 23.5 28.64 22.94 28.345 22.45L18.43 6.16499C17.915 5.31999 16.995 4.79999 16 4.79999C15.005 4.79999 14.085 5.31999 13.57 6.16499ZM17.6 21.6C17.6 21.1756 17.4314 20.7687 17.1313 20.4686C16.8313 20.1686 16.4243 20 16 20C15.5756 20 15.1686 20.1686 14.8686 20.4686C14.5685 20.7687 14.4 21.1756 14.4 21.6C14.4 22.0243 14.5685 22.4313 14.8686 22.7314C15.1686 23.0314 15.5756 23.2 16 23.2C16.4243 23.2 16.8313 23.0314 17.1313 22.7314C17.4314 22.4313 17.6 22.0243 17.6 21.6ZM17.2 12.4C17.2 11.735 16.665 11.2 16 11.2C15.335 11.2 14.8 11.735 14.8 12.4V17.2C14.8 17.865 15.335 18.4 16 18.4C16.665 18.4 17.2 17.865 17.2 17.2V12.4Z" fill="#202020"/>
</svg>
